<svg width="146" height="48" viewBox="0 0 146 48" fill="none" xmlns="http://www.w3.org/2000/svg">
<path d="M146 24.0708L130.251 24.0953V24.1441C130.251 27.4196 131.133 29.9128 132.872 31.5994C134.611 33.286 136.693 34.1415 139.118 34.1415C141.983 34.1415 144.065 32.9682 145.339 30.5972L146 30.9394C145.804 31.6483 145.535 32.3327 145.192 33.0171C144.849 33.7015 144.335 34.5081 143.649 35.437C142.963 36.3658 142.008 37.0991 140.759 37.6613C139.51 38.2235 138.089 38.4924 136.497 38.4924C133.117 38.4924 130.3 37.3436 128.047 35.0459C125.794 32.7482 124.667 29.7172 124.667 25.9774C124.667 22.2376 125.794 19.1821 128.023 16.8356C130.251 14.489 133.044 13.3157 136.399 13.3157C137.893 13.3157 139.24 13.5846 140.44 14.1224C141.64 14.6601 142.571 15.2956 143.232 16.0534C143.894 16.8111 144.457 17.6422 144.898 18.5711C145.339 19.4999 145.633 20.2821 145.78 20.9421C145.927 21.602 146 22.1398 146 22.5553V24.0708ZM135.517 15.369V15.4179C134.17 15.4179 133.044 16.0045 132.137 17.1533C131.231 18.3022 130.643 19.891 130.374 21.9198L140.342 21.7976C140.244 20.8687 140.073 19.9888 139.803 19.1332C139.534 18.2777 139.02 17.4467 138.285 16.6156C137.55 15.7845 136.619 15.369 135.517 15.369Z" fill="#F7F7F7"/>
<path d="M117.123 38.4178C115.335 38.4178 113.841 37.8311 112.616 36.6823C111.392 35.5334 110.779 33.8468 110.779 31.6469V16.0276H108.33V14.5855C112.249 12.0189 114.821 9.62346 116.045 7.39912H116.755V13.9011H123.27L122.878 16.0521H116.853L116.706 29.9604C116.682 33.2113 117.907 34.8246 120.38 34.8246C121.531 34.8246 122.585 34.3846 123.54 33.5291L124.005 34.0668C122.193 36.9756 119.89 38.4178 117.123 38.4178Z" fill="#F7F7F7"/>
<path d="M94.1483 37.9746V37.3146C95.5934 36.7035 96.5241 36.0925 96.916 35.4814C97.3078 34.8703 97.5038 33.6237 97.5038 31.7415V22.0375C97.5038 19.7398 97.3078 18.2488 96.8915 17.5888C96.4751 16.9289 95.5689 16.2444 94.1728 15.5356V14.9001C97.6262 14.6312 100.761 14.069 103.602 13.189V31.766C103.602 33.6481 103.798 34.8947 104.19 35.5058C104.582 36.1169 105.488 36.728 106.884 37.3146V37.9746H94.1483Z" fill="#F7F7F7"/>
<path d="M79.259 48L79.2835 47.3156C81.2919 46.7045 82.5655 46.0934 83.1288 45.4823C83.6921 44.8712 83.9615 43.6246 83.9615 41.7669V34.1406H83.9125C83.1043 35.3139 82.0511 36.3161 80.7285 37.1716C79.4059 38.0271 77.9364 38.4426 76.2954 38.4426C73.5768 38.4426 71.299 37.2938 69.4376 34.9961C67.5761 32.6984 66.6454 29.7408 66.6454 26.1476C66.6454 22.4567 67.6251 19.3768 69.56 16.9325C71.4949 14.4881 73.9686 13.266 76.9812 13.266C78.4262 13.266 79.7488 13.5837 80.949 14.2437C82.1491 14.9037 83.1533 15.5392 83.9615 16.1747C84.7698 16.8103 85.4311 17.128 85.9454 17.128C86.9496 17.128 88.0762 16.0036 89.3253 13.7304H90.0356V41.7669C90.0356 43.6491 90.2316 44.8957 90.6234 45.5068C91.0153 46.1179 91.9215 46.7289 93.3176 47.34V48H79.259ZM78.6467 35.2894H78.6222C80.5326 35.2894 82.296 34.1162 83.937 31.794V22.6278C83.3002 20.7212 82.443 19.059 81.3653 17.6413C80.2877 16.2236 79.0386 15.5148 77.5935 15.5148C76.026 15.5148 74.8504 16.3947 74.0666 18.1546C73.2829 19.9146 72.891 22.09 72.891 24.681C72.891 27.7364 73.4053 30.2786 74.4095 32.2829C75.4137 34.2873 76.8343 35.2894 78.6467 35.2894Z" fill="#F7F7F7"/>
<path d="M98.4867 1.06242C98.8825 -0.35414 100.856 -0.35414 101.251 1.06242C101.487 1.90557 102.394 2.34984 103.188 2.01155C104.524 1.44319 105.754 3.01286 104.912 4.21092C104.411 4.92402 104.635 5.92229 105.391 6.3436C106.66 7.05142 106.221 9.00876 104.775 9.08616C103.915 9.13223 103.288 9.93278 103.435 10.7964C103.682 12.2474 101.905 13.1185 100.944 12.017C100.372 11.3613 99.3659 11.3613 98.7942 12.017C97.8335 13.1185 96.0558 12.2474 96.3033 10.7964C96.4505 9.93278 95.8231 9.13223 94.9628 9.08616C93.5175 9.00876 93.0784 7.05142 94.3476 6.3436C95.1031 5.92229 95.327 4.92402 94.826 4.21092C93.9843 3.01286 95.2146 1.44319 96.5498 2.01155C97.3445 2.34984 98.2512 1.90557 98.4867 1.06242Z" fill="#F7F7F7"/>
<path d="M52.4647 37.98V37.3689C53.9098 36.7579 54.8405 36.1468 55.2324 35.5357C55.6242 34.9246 55.8202 33.678 55.8202 31.7959V9.38128C55.8202 7.0836 55.6242 5.59256 55.2079 4.90814C54.7915 4.22373 53.8853 3.53932 52.4892 2.83046V2.19493C55.9426 1.92605 59.0777 1.36386 61.9188 0.483894V31.7714C61.9188 33.6536 62.1147 34.9002 62.5066 35.5112C62.8985 36.1223 63.8047 36.7334 65.2008 37.3201V37.98H52.4647Z" fill="#F7F7F7"/>
<path d="M50.9191 24.0708L35.1705 24.0953V24.1441C35.1705 27.4196 36.0522 29.9128 37.7912 31.5994C39.5301 33.286 41.612 34.1415 44.0367 34.1415C46.9023 34.1415 48.9842 32.9682 50.2578 30.5972L50.9191 30.9394C50.7231 31.6483 50.4537 32.3327 50.1108 33.0171C49.7679 33.7015 49.2536 34.5081 48.5678 35.437C47.882 36.3658 46.9268 37.0991 45.6777 37.6613C44.4286 38.2235 43.0081 38.4924 41.4161 38.4924C38.0361 38.4924 35.2195 37.3436 32.9662 35.0459C30.7129 32.7482 29.5863 29.7172 29.5863 25.9774C29.5863 22.2376 30.7129 19.1821 32.9417 16.8356C35.1705 14.489 37.9626 13.3157 41.3181 13.3157C42.8121 13.3157 44.1592 13.5846 45.3593 14.1224C46.5594 14.6601 47.4902 15.2956 48.1514 16.0534C48.8127 16.8111 49.3761 17.6422 49.8169 18.5711C50.2578 19.4999 50.5517 20.2821 50.6987 20.9421C50.8456 21.602 50.9191 22.1398 50.9191 22.5553V24.0708ZM40.4364 15.369V15.4179C39.0893 15.4179 37.9626 16.0045 37.0564 17.1533C36.1502 18.3022 35.5624 19.891 35.293 21.9198L45.2614 21.7976C45.1634 20.8687 44.9919 19.9888 44.7225 19.1332C44.4531 18.2777 43.9388 17.4467 43.204 16.6156C42.4692 15.7845 41.5385 15.369 40.4364 15.369Z" fill="#F7F7F7"/>
<path d="M17.0712 13.2903C19.8143 13.2903 22.1166 14.4392 23.9535 16.7368C25.7904 19.0345 26.7211 22.0166 26.7211 25.6831C26.7211 29.5696 25.717 32.6739 23.7086 34.996C21.7002 37.3182 19.251 38.467 16.3854 38.467C15.2832 38.467 14.2545 38.2715 13.2748 37.8804C12.2952 37.4893 11.5114 37.0737 10.9236 36.6338C10.3358 36.1938 9.74795 35.7782 9.13564 35.3871C8.52334 34.996 8.009 34.8005 7.59263 34.8005C6.56395 34.8005 5.36382 36.0716 3.99225 38.6137H3.28197V7.05726C3.28197 5.95731 3.06154 5.10179 2.62068 4.51515C2.17982 3.92851 1.29809 3.31743 0 2.6819V2.04637C3.2085 1.85083 6.34352 1.28863 9.38057 0.335336V17.5924H9.42955C11.5604 14.7325 14.1076 13.2903 17.0712 13.2903ZM15.7731 36.2182L15.7976 36.2427C17.3406 36.2427 18.4917 35.4116 19.251 33.7739C20.0102 32.1362 20.4021 29.9852 20.4021 27.3453C20.4021 24.2898 19.9123 21.6988 18.9081 19.5967C17.9039 17.4946 16.5078 16.4435 14.6954 16.4435C13.0299 16.4435 11.2665 17.6412 9.38057 20.0123V28.9096C9.94389 30.8407 10.7766 32.5517 11.8788 34.0183C12.9809 35.4849 14.279 36.2182 15.7731 36.2182Z" fill="#F7F7F7"/>
</svg>
