<svg width="31" height="29" viewBox="0 0 31 29" fill="none" xmlns="http://www.w3.org/2000/svg">
<mask id="path-1-inside-1_954_13186" fill="white">
<path fill-rule="evenodd" clip-rule="evenodd" d="M5.84778 1.18255C5.84778 2.32135 5.78268 2.3651 4.09345 2.3651C2.40422 2.3651 2.33911 2.40886 2.33911 3.54766C2.33911 4.59895 2.20929 4.73021 1.16956 4.73021H0V8.27787V11.8255H1.16956H2.33911V14.1906V16.5557H3.50867H4.67823V18.9208V21.2859H5.84778C6.88752 21.2859 7.01734 21.4172 7.01734 22.4685C7.01734 23.6073 7.08245 23.651 8.77168 23.651C10.4609 23.651 10.526 23.6948 10.526 24.8336C10.526 25.9724 10.5911 26.0161 12.2803 26.0161C13.9696 26.0161 14.0347 26.0599 14.0347 27.1987C14.0347 28.25 14.1645 28.3813 15.2042 28.3813C16.244 28.3813 16.3738 28.25 16.3738 27.1987C16.3738 26.0599 16.4389 26.0161 18.1281 26.0161C19.8174 26.0161 19.8825 25.9724 19.8825 24.8336C19.8825 23.6948 19.9476 23.651 21.6368 23.651C23.326 23.651 23.3911 23.6073 23.3911 22.4685C23.3911 21.4172 23.521 21.2859 24.5607 21.2859H25.7303V18.9208V16.5557H26.8998H28.0694V14.1906V11.8255H29.2389H30.4085V8.27787V4.73021H29.2389C28.1992 4.73021 28.0694 4.59895 28.0694 3.54766C28.0694 2.40886 28.0043 2.3651 26.315 2.3651C24.6258 2.3651 24.5607 2.32135 24.5607 1.18255V0H22.2216H19.8825V1.18255C19.8825 2.32135 19.8174 2.3651 18.1281 2.3651C16.4389 2.3651 16.3738 2.40886 16.3738 3.54766C16.3738 4.59895 16.244 4.73021 15.2042 4.73021C14.1645 4.73021 14.0347 4.59895 14.0347 3.54766C14.0347 2.40886 13.9696 2.3651 12.2803 2.3651C10.5911 2.3651 10.526 2.32135 10.526 1.18255V0H8.1869H5.84778V1.18255ZM5.84778 3.54766C5.84778 4.68645 5.78268 4.73021 4.09345 4.73021H2.33911V8.27787V11.8255H3.50867H4.67823V14.1906V16.5557H5.84778H7.01734V18.9208V21.2859H8.77168C10.4609 21.2859 10.526 21.3297 10.526 22.4685C10.526 23.6073 10.5911 23.651 12.2803 23.651C13.9696 23.651 14.0347 23.6948 14.0347 24.8336C14.0347 25.8849 14.1645 26.0161 15.2042 26.0161C16.244 26.0161 16.3738 25.8849 16.3738 24.8336C16.3738 23.6948 16.4389 23.651 18.1281 23.651C19.8174 23.651 19.8825 23.6073 19.8825 22.4685C19.8825 21.3297 19.9476 21.2859 21.6368 21.2859H23.3911V18.9208V16.5557H24.5607H25.7303V14.1906V11.8255H26.8998H28.0694V8.27787V4.73021H26.315C24.6258 4.73021 24.5607 4.68645 24.5607 3.54766V2.3651H22.2216H19.8825V3.54766C19.8825 4.68645 19.8174 4.73021 18.1281 4.73021C16.4389 4.73021 16.3738 4.77396 16.3738 5.91276C16.3738 6.96405 16.244 7.09531 15.2042 7.09531C14.1645 7.09531 14.0347 6.96405 14.0347 5.91276C14.0347 4.77396 13.9696 4.73021 12.2803 4.73021C10.5911 4.73021 10.526 4.68645 10.526 3.54766V2.3651H8.1869H5.84778V3.54766Z"/>
<path d="M5.84778 3.54766C5.84778 4.68645 5.78268 4.73021 4.09345 4.73021H2.33911V8.27787V11.8255H3.50867H4.67823V14.1906V16.5557H5.84778H7.01734V18.9208V21.2859H8.77168C10.4609 21.2859 10.526 21.3297 10.526 22.4685C10.526 23.6073 10.5911 23.651 12.2803 23.651C13.9696 23.651 14.0347 23.6948 14.0347 24.8336C14.0347 25.8849 14.1645 26.0161 15.2042 26.0161C16.244 26.0161 16.3738 25.8849 16.3738 24.8336C16.3738 23.6948 16.4389 23.651 18.1281 23.651C19.8174 23.651 19.8825 23.6073 19.8825 22.4685C19.8825 21.3297 19.9476 21.2859 21.6368 21.2859H23.3911V18.9208V16.5557H24.5607H25.7303V14.1906V11.8255H26.8998H28.0694V8.27787V4.73021H26.315C24.6258 4.73021 24.5607 4.68645 24.5607 3.54766V2.3651H22.2216H19.8825V3.54766C19.8825 4.68645 19.8174 4.73021 18.1281 4.73021C16.4389 4.73021 16.3738 4.77396 16.3738 5.91276C16.3738 6.96405 16.244 7.09531 15.2042 7.09531C14.1645 7.09531 14.0347 6.96405 14.0347 5.91276C14.0347 4.77396 13.9696 4.73021 12.2803 4.73021C10.5911 4.73021 10.526 4.68645 10.526 3.54766V2.3651H8.1869H5.84778V3.54766Z"/>
</mask>
<path fill-rule="evenodd" clip-rule="evenodd" d="M5.84778 1.18255C5.84778 2.32135 5.78268 2.3651 4.09345 2.3651C2.40422 2.3651 2.33911 2.40886 2.33911 3.54766C2.33911 4.59895 2.20929 4.73021 1.16956 4.73021H0V8.27787V11.8255H1.16956H2.33911V14.1906V16.5557H3.50867H4.67823V18.9208V21.2859H5.84778C6.88752 21.2859 7.01734 21.4172 7.01734 22.4685C7.01734 23.6073 7.08245 23.651 8.77168 23.651C10.4609 23.651 10.526 23.6948 10.526 24.8336C10.526 25.9724 10.5911 26.0161 12.2803 26.0161C13.9696 26.0161 14.0347 26.0599 14.0347 27.1987C14.0347 28.25 14.1645 28.3813 15.2042 28.3813C16.244 28.3813 16.3738 28.25 16.3738 27.1987C16.3738 26.0599 16.4389 26.0161 18.1281 26.0161C19.8174 26.0161 19.8825 25.9724 19.8825 24.8336C19.8825 23.6948 19.9476 23.651 21.6368 23.651C23.326 23.651 23.3911 23.6073 23.3911 22.4685C23.3911 21.4172 23.521 21.2859 24.5607 21.2859H25.7303V18.9208V16.5557H26.8998H28.0694V14.1906V11.8255H29.2389H30.4085V8.27787V4.73021H29.2389C28.1992 4.73021 28.0694 4.59895 28.0694 3.54766C28.0694 2.40886 28.0043 2.3651 26.315 2.3651C24.6258 2.3651 24.5607 2.32135 24.5607 1.18255V0H22.2216H19.8825V1.18255C19.8825 2.32135 19.8174 2.3651 18.1281 2.3651C16.4389 2.3651 16.3738 2.40886 16.3738 3.54766C16.3738 4.59895 16.244 4.73021 15.2042 4.73021C14.1645 4.73021 14.0347 4.59895 14.0347 3.54766C14.0347 2.40886 13.9696 2.3651 12.2803 2.3651C10.5911 2.3651 10.526 2.32135 10.526 1.18255V0H8.1869H5.84778V1.18255ZM5.84778 3.54766C5.84778 4.68645 5.78268 4.73021 4.09345 4.73021H2.33911V8.27787V11.8255H3.50867H4.67823V14.1906V16.5557H5.84778H7.01734V18.9208V21.2859H8.77168C10.4609 21.2859 10.526 21.3297 10.526 22.4685C10.526 23.6073 10.5911 23.651 12.2803 23.651C13.9696 23.651 14.0347 23.6948 14.0347 24.8336C14.0347 25.8849 14.1645 26.0161 15.2042 26.0161C16.244 26.0161 16.3738 25.8849 16.3738 24.8336C16.3738 23.6948 16.4389 23.651 18.1281 23.651C19.8174 23.651 19.8825 23.6073 19.8825 22.4685C19.8825 21.3297 19.9476 21.2859 21.6368 21.2859H23.3911V18.9208V16.5557H24.5607H25.7303V14.1906V11.8255H26.8998H28.0694V8.27787V4.73021H26.315C24.6258 4.73021 24.5607 4.68645 24.5607 3.54766V2.3651H22.2216H19.8825V3.54766C19.8825 4.68645 19.8174 4.73021 18.1281 4.73021C16.4389 4.73021 16.3738 4.77396 16.3738 5.91276C16.3738 6.96405 16.244 7.09531 15.2042 7.09531C14.1645 7.09531 14.0347 6.96405 14.0347 5.91276C14.0347 4.77396 13.9696 4.73021 12.2803 4.73021C10.5911 4.73021 10.526 4.68645 10.526 3.54766V2.3651H8.1869H5.84778V3.54766Z" fill="#FF7723"/>
<path d="M5.84778 3.54766C5.84778 4.68645 5.78268 4.73021 4.09345 4.73021H2.33911V8.27787V11.8255H3.50867H4.67823V14.1906V16.5557H5.84778H7.01734V18.9208V21.2859H8.77168C10.4609 21.2859 10.526 21.3297 10.526 22.4685C10.526 23.6073 10.5911 23.651 12.2803 23.651C13.9696 23.651 14.0347 23.6948 14.0347 24.8336C14.0347 25.8849 14.1645 26.0161 15.2042 26.0161C16.244 26.0161 16.3738 25.8849 16.3738 24.8336C16.3738 23.6948 16.4389 23.651 18.1281 23.651C19.8174 23.651 19.8825 23.6073 19.8825 22.4685C19.8825 21.3297 19.9476 21.2859 21.6368 21.2859H23.3911V18.9208V16.5557H24.5607H25.7303V14.1906V11.8255H26.8998H28.0694V8.27787V4.73021H26.315C24.6258 4.73021 24.5607 4.68645 24.5607 3.54766V2.3651H22.2216H19.8825V3.54766C19.8825 4.68645 19.8174 4.73021 18.1281 4.73021C16.4389 4.73021 16.3738 4.77396 16.3738 5.91276C16.3738 6.96405 16.244 7.09531 15.2042 7.09531C14.1645 7.09531 14.0347 6.96405 14.0347 5.91276C14.0347 4.77396 13.9696 4.73021 12.2803 4.73021C10.5911 4.73021 10.526 4.68645 10.526 3.54766V2.3651H8.1869H5.84778V3.54766Z" fill="#FF7723"/>
<path d="M2.33911 11.8255H1.25475V12.9099H2.33911V11.8255ZM4.67823 16.5557H3.59386V17.6401H4.67823V16.5557ZM25.7303 16.5557V17.6401H26.8146V16.5557H25.7303ZM28.0694 11.8255V12.9099H29.1537V11.8255H28.0694ZM2.33911 4.73021V3.64584H1.25475V4.73021H2.33911ZM4.67823 11.8255H5.76259V10.7412H4.67823V11.8255ZM7.01734 16.5557H8.10171V15.4714H7.01734V16.5557ZM7.01734 21.2859H5.93298V22.3703H7.01734V21.2859ZM23.3911 21.2859V22.3703H24.4755V21.2859H23.3911ZM23.3911 16.5557V15.4714H22.3068V16.5557H23.3911ZM25.7303 11.8255V10.7412H24.6459V11.8255H25.7303ZM28.0694 4.73021H29.1537V3.64584H28.0694V4.73021ZM24.5607 2.3651H25.6451V1.28074H24.5607V2.3651ZM19.8825 2.3651V1.28074H18.7981V2.3651H19.8825ZM10.526 2.3651H11.6104V1.28074H10.526V2.3651ZM5.84778 2.3651V1.28074H4.76342V2.3651H5.84778ZM5.84778 3.54766H4.76342C4.76342 3.68869 4.76231 3.79231 4.75847 3.87549C4.75457 3.96011 4.74889 3.99522 4.74748 4.00239C4.74641 4.00778 4.75557 3.95551 4.79849 3.88101C4.84694 3.7969 4.91703 3.72138 4.99802 3.66679C5.07012 3.61819 5.12179 3.60585 5.11636 3.60727C5.10939 3.60909 5.07168 3.61761 4.98315 3.62557C4.79703 3.64229 4.52713 3.64584 4.09345 3.64584V4.73021V5.81457C4.50438 5.81457 4.87608 5.81266 5.17726 5.78559C5.45521 5.76061 5.85667 5.70341 6.21014 5.46517C6.63781 5.17692 6.80775 4.76301 6.87496 4.42333C6.93189 4.13562 6.93215 3.80835 6.93215 3.54766H5.84778ZM4.09345 4.73021V3.64584H2.33911V4.73021V5.81457H4.09345V4.73021ZM2.33911 4.73021H1.25475V8.27787H2.33911H3.42348V4.73021H2.33911ZM2.33911 8.27787H1.25475V11.8255H2.33911H3.42348V8.27787H2.33911ZM2.33911 11.8255V12.9099H3.50867V11.8255V10.7412H2.33911V11.8255ZM3.50867 11.8255V12.9099H4.67823V11.8255V10.7412H3.50867V11.8255ZM4.67823 11.8255H3.59386V14.1906H4.67823H5.76259V11.8255H4.67823ZM4.67823 14.1906H3.59386V16.5557H4.67823H5.76259V14.1906H4.67823ZM4.67823 16.5557V17.6401H5.84778V16.5557V15.4714H4.67823V16.5557ZM5.84778 16.5557V17.6401H7.01734V16.5557V15.4714H5.84778V16.5557ZM7.01734 16.5557H5.93298V18.9208H7.01734H8.10171V16.5557H7.01734ZM7.01734 18.9208H5.93298V21.2859H7.01734H8.10171V18.9208H7.01734ZM7.01734 21.2859V22.3703H8.77168V21.2859V20.2016H7.01734V21.2859ZM8.77168 21.2859V22.3703C9.20536 22.3703 9.47526 22.3739 9.66138 22.3906C9.74991 22.3985 9.78761 22.4071 9.79459 22.4089C9.80002 22.4103 9.74835 22.398 9.67625 22.3494C9.59526 22.2948 9.52516 22.2192 9.47672 22.1351C9.4338 22.0606 9.42464 22.0084 9.4257 22.0138C9.42712 22.0209 9.4328 22.056 9.4367 22.1407C9.44054 22.2238 9.44165 22.3275 9.44165 22.4685H10.526H11.6104C11.6104 22.2078 11.6101 21.8805 11.5532 21.5928C11.486 21.2531 11.316 20.8392 10.8884 20.551C10.5349 20.3127 10.1334 20.2555 9.85549 20.2306C9.55431 20.2035 9.18261 20.2016 8.77168 20.2016V21.2859ZM10.526 22.4685H9.44165C9.44165 22.7292 9.44191 23.0565 9.49884 23.3442C9.56605 23.6838 9.73599 24.0978 10.1637 24.386C10.5171 24.6242 10.9186 24.6814 11.1965 24.7064C11.4977 24.7335 11.8694 24.7354 12.2803 24.7354V23.651V22.5667C11.8467 22.5667 11.5768 22.5631 11.3906 22.5464C11.3021 22.5384 11.2644 22.5299 11.2574 22.5281C11.252 22.5267 11.3037 22.539 11.3758 22.5876C11.4568 22.6422 11.5269 22.7177 11.5753 22.8018C11.6182 22.8763 11.6274 22.9286 11.6263 22.9232C11.6249 22.9161 11.6192 22.8809 11.6153 22.7963C11.6115 22.7131 11.6104 22.6095 11.6104 22.4685H10.526ZM12.2803 23.651V24.7354C12.714 24.7354 12.9839 24.739 13.1701 24.7557C13.2586 24.7636 13.2963 24.7722 13.3033 24.774C13.3087 24.7754 13.257 24.7631 13.1849 24.7145C13.1039 24.6599 13.0338 24.5844 12.9854 24.5002C12.9425 24.4257 12.9333 24.3735 12.9344 24.3789C12.9358 24.386 12.9415 24.4211 12.9454 24.5058C12.9492 24.5889 12.9503 24.6926 12.9503 24.8336H14.0347H15.1191C15.1191 24.5729 15.1188 24.2456 15.0619 23.9579C14.9947 23.6182 14.8247 23.2043 14.397 22.9161C14.0436 22.6778 13.6421 22.6206 13.3642 22.5957C13.063 22.5686 12.6913 22.5667 12.2803 22.5667V23.651ZM14.0347 24.8336H12.9503C12.9503 25.1005 12.957 25.3892 13.0035 25.6513C13.0516 25.9222 13.1611 26.2808 13.4586 26.5816C13.7575 26.8838 14.1163 26.9966 14.3893 27.0462C14.6518 27.0938 14.9401 27.1005 15.2042 27.1005V26.0161V24.9318C15.0838 24.9318 14.9899 24.9298 14.9148 24.9257C14.8386 24.9215 14.7964 24.9159 14.7764 24.9123C14.7564 24.9086 14.7777 24.9103 14.8209 24.9297C14.869 24.9513 14.9356 24.9909 15.0005 25.0566C15.0653 25.1221 15.1034 25.1882 15.1237 25.2343C15.1418 25.2755 15.1428 25.2946 15.1389 25.2724C15.135 25.2504 15.1293 25.2061 15.1251 25.1283C15.121 25.0513 15.1191 24.9557 15.1191 24.8336H14.0347ZM15.2042 26.0161V27.1005C15.4683 27.1005 15.7566 27.0938 16.0192 27.0462C16.2921 26.9966 16.651 26.8838 16.9499 26.5816C17.2474 26.2808 17.3569 25.9222 17.405 25.6513C17.4515 25.3892 17.4582 25.1005 17.4582 24.8336H16.3738H15.2894C15.2894 24.9557 15.2875 25.0513 15.2834 25.1283C15.2792 25.2061 15.2735 25.2504 15.2696 25.2724C15.2656 25.2946 15.2667 25.2755 15.2848 25.2343C15.305 25.1882 15.3432 25.1221 15.4079 25.0566C15.4729 24.9909 15.5394 24.9513 15.5876 24.9297C15.6308 24.9103 15.6521 24.9086 15.6321 24.9123C15.6121 24.9159 15.5699 24.9215 15.4937 24.9257C15.4186 24.9298 15.3247 24.9318 15.2042 24.9318V26.0161ZM16.3738 24.8336H17.4582C17.4582 24.6926 17.4593 24.5889 17.4631 24.5058C17.467 24.4211 17.4727 24.386 17.4741 24.3789C17.4752 24.3735 17.466 24.4257 17.4231 24.5002C17.3746 24.5844 17.3046 24.6599 17.2236 24.7145C17.1515 24.7631 17.0998 24.7754 17.1052 24.774C17.1122 24.7722 17.1499 24.7636 17.2384 24.7557C17.4246 24.739 17.6945 24.7354 18.1281 24.7354V23.651V22.5667C17.7172 22.5667 17.3455 22.5686 17.0443 22.5957C16.7664 22.6206 16.3649 22.6778 16.0114 22.9161C15.5838 23.2043 15.4138 23.6182 15.3466 23.9579C15.2897 24.2456 15.2894 24.5729 15.2894 24.8336H16.3738ZM18.1281 23.651V24.7354C18.5391 24.7354 18.9108 24.7335 19.2119 24.7064C19.4899 24.6814 19.8913 24.6242 20.2448 24.386C20.6725 24.0978 20.8424 23.6838 20.9096 23.3442C20.9666 23.0565 20.9668 22.7292 20.9668 22.4685H19.8825H18.7981C18.7981 22.6095 18.797 22.7131 18.7932 22.7963C18.7893 22.8809 18.7836 22.9161 18.7822 22.9232C18.7811 22.9286 18.7903 22.8763 18.8332 22.8018C18.8816 22.7177 18.9517 22.6422 19.0327 22.5876C19.1048 22.539 19.1565 22.5267 19.151 22.5281C19.1441 22.5299 19.1064 22.5384 19.0178 22.5464C18.8317 22.5631 18.5618 22.5667 18.1281 22.5667V23.651ZM19.8825 22.4685H20.9668C20.9668 22.3275 20.9679 22.2238 20.9718 22.1407C20.9757 22.056 20.9814 22.0209 20.9828 22.0138C20.9838 22.0084 20.9747 22.0606 20.9318 22.1351C20.8833 22.2192 20.8132 22.2948 20.7322 22.3494C20.6601 22.398 20.6085 22.4103 20.6139 22.4089C20.6209 22.4071 20.6586 22.3985 20.7471 22.3906C20.9332 22.3739 21.2031 22.3703 21.6368 22.3703V21.2859V20.2016C21.2259 20.2016 20.8542 20.2035 20.553 20.2306C20.275 20.2555 19.8736 20.3127 19.5201 20.551C19.0924 20.8392 18.9225 21.2531 18.8553 21.5928C18.7984 21.8805 18.7981 22.2078 18.7981 22.4685H19.8825ZM21.6368 21.2859V22.3703H23.3911V21.2859V20.2016H21.6368V21.2859ZM23.3911 21.2859H24.4755V18.9208H23.3911H22.3068V21.2859H23.3911ZM23.3911 18.9208H24.4755V16.5557H23.3911H22.3068V18.9208H23.3911ZM23.3911 16.5557V17.6401H24.5607V16.5557V15.4714H23.3911V16.5557ZM24.5607 16.5557V17.6401H25.7303V16.5557V15.4714H24.5607V16.5557ZM25.7303 16.5557H26.8146V14.1906H25.7303H24.6459V16.5557H25.7303ZM25.7303 14.1906H26.8146V11.8255H25.7303H24.6459V14.1906H25.7303ZM25.7303 11.8255V12.9099H26.8998V11.8255V10.7412H25.7303V11.8255ZM26.8998 11.8255V12.9099H28.0694V11.8255V10.7412H26.8998V11.8255ZM28.0694 11.8255H29.1537V8.27787H28.0694H26.985V11.8255H28.0694ZM28.0694 8.27787H29.1537V4.73021H28.0694H26.985V8.27787H28.0694ZM28.0694 4.73021V3.64584H26.315V4.73021V5.81457H28.0694V4.73021ZM26.315 4.73021V3.64584C25.8814 3.64584 25.6115 3.64229 25.4253 3.62557C25.3368 3.61761 25.2991 3.60909 25.2921 3.60727C25.2867 3.60585 25.3384 3.61819 25.4105 3.66679C25.4915 3.72138 25.5615 3.7969 25.61 3.88101C25.6529 3.95551 25.6621 4.00778 25.661 4.00239C25.6596 3.99522 25.6539 3.96011 25.65 3.87549C25.6462 3.79231 25.6451 3.6887 25.6451 3.54766H24.5607H23.4763C23.4763 3.80835 23.4766 4.13562 23.5335 4.42333C23.6007 4.76301 23.7707 5.17692 24.1983 5.46517C24.5518 5.70341 24.9533 5.76061 25.2312 5.78559C25.5324 5.81266 25.9041 5.81457 26.315 5.81457V4.73021ZM24.5607 3.54766H25.6451V2.3651H24.5607H23.4763V3.54766H24.5607ZM24.5607 2.3651V1.28074H22.2216V2.3651V3.44947H24.5607V2.3651ZM22.2216 2.3651V1.28074H19.8825V2.3651V3.44947H22.2216V2.3651ZM19.8825 2.3651H18.7981V3.54766H19.8825H20.9668V2.3651H19.8825ZM19.8825 3.54766H18.7981C18.7981 3.68869 18.797 3.79231 18.7932 3.87549C18.7893 3.96011 18.7836 3.99522 18.7822 4.00239C18.7811 4.00778 18.7903 3.95551 18.8332 3.88101C18.8816 3.7969 18.9517 3.72138 19.0327 3.66679C19.1048 3.61819 19.1565 3.60585 19.151 3.60727C19.1441 3.60909 19.1064 3.61761 19.0178 3.62557C18.8317 3.64229 18.5618 3.64584 18.1281 3.64584V4.73021V5.81457C18.5391 5.81457 18.9108 5.81266 19.2119 5.78559C19.4899 5.76061 19.8914 5.70341 20.2448 5.46517C20.6725 5.17692 20.8424 4.76301 20.9096 4.42333C20.9666 4.13563 20.9668 3.80835 20.9668 3.54766H19.8825ZM18.1281 4.73021V3.64584C17.7172 3.64584 17.3455 3.64776 17.0443 3.67483C16.7664 3.6998 16.3649 3.75701 16.0114 3.99524C15.5838 4.2835 15.4138 4.69741 15.3466 5.03708C15.2897 5.32479 15.2894 5.65206 15.2894 5.91276H16.3738H17.4582C17.4582 5.77172 17.4593 5.66811 17.4631 5.58493C17.467 5.50031 17.4727 5.4652 17.4741 5.45803C17.4752 5.45263 17.466 5.5049 17.4231 5.57941C17.3746 5.66352 17.3046 5.73904 17.2236 5.79363C17.1515 5.84222 17.0998 5.85457 17.1052 5.85315C17.1122 5.85133 17.1499 5.84281 17.2384 5.83485C17.4246 5.81813 17.6945 5.81457 18.1281 5.81457V4.73021ZM16.3738 5.91276H15.2894C15.2894 6.0349 15.2875 6.13049 15.2834 6.20742C15.2792 6.28528 15.2735 6.32955 15.2696 6.35159C15.2656 6.37379 15.2667 6.35471 15.2848 6.31343C15.305 6.26733 15.3432 6.20124 15.4079 6.13576C15.4729 6.07011 15.5394 6.03046 15.5876 6.00886C15.6308 5.9895 15.6521 5.98779 15.6321 5.99143C15.6121 5.99505 15.5699 6.00071 15.4937 6.00488C15.4186 6.00899 15.3247 6.01095 15.2042 6.01095V7.09531V8.17968C15.4683 8.17968 15.7566 8.17295 16.0192 8.12533C16.2921 8.07581 16.651 7.963 16.9499 7.66078C17.2474 7.35999 17.3569 7.00133 17.405 6.7305C17.4515 6.46835 17.4582 6.17962 17.4582 5.91276H16.3738ZM15.2042 7.09531V6.01095C15.0838 6.01095 14.9899 6.00899 14.9148 6.00488C14.8386 6.00071 14.7964 5.99505 14.7764 5.99143C14.7564 5.98779 14.7777 5.9895 14.8209 6.00886C14.869 6.03046 14.9356 6.07011 15.0005 6.13576C15.0653 6.20124 15.1034 6.26733 15.1237 6.31343C15.1418 6.35471 15.1428 6.37379 15.1389 6.35159C15.135 6.32955 15.1293 6.28528 15.1251 6.20742C15.121 6.13049 15.1191 6.0349 15.1191 5.91276H14.0347H12.9503C12.9503 6.17962 12.957 6.46835 13.0035 6.7305C13.0516 7.00133 13.1611 7.35999 13.4586 7.66078C13.7575 7.963 14.1163 8.07581 14.3893 8.12533C14.6518 8.17295 14.9401 8.17968 15.2042 8.17968V7.09531ZM14.0347 5.91276H15.1191C15.1191 5.65206 15.1188 5.32479 15.0619 5.03708C14.9947 4.69741 14.8247 4.2835 14.397 3.99524C14.0436 3.75701 13.6421 3.6998 13.3642 3.67483C13.063 3.64776 12.6913 3.64584 12.2803 3.64584V4.73021V5.81457C12.714 5.81457 12.9839 5.81813 13.1701 5.83485C13.2586 5.84281 13.2963 5.85133 13.3033 5.85315C13.3087 5.85457 13.257 5.84222 13.1849 5.79363C13.1039 5.73904 13.0338 5.66352 12.9854 5.57941C12.9425 5.5049 12.9333 5.45263 12.9344 5.45803C12.9358 5.4652 12.9415 5.50031 12.9454 5.58493C12.9492 5.66811 12.9503 5.77172 12.9503 5.91276H14.0347ZM12.2803 4.73021V3.64584C11.8467 3.64584 11.5768 3.64229 11.3906 3.62557C11.3021 3.61761 11.2644 3.60909 11.2574 3.60727C11.252 3.60585 11.3037 3.61819 11.3758 3.66679C11.4568 3.72138 11.5269 3.7969 11.5753 3.88101C11.6182 3.95551 11.6274 4.00778 11.6263 4.00239C11.6249 3.99522 11.6192 3.96011 11.6153 3.87549C11.6115 3.79231 11.6104 3.68869 11.6104 3.54766H10.526H9.44165C9.44165 3.80835 9.44191 4.13562 9.49884 4.42333C9.56605 4.76301 9.73599 5.17692 10.1637 5.46517C10.5171 5.70341 10.9186 5.76061 11.1965 5.78559C11.4977 5.81266 11.8694 5.81457 12.2803 5.81457V4.73021ZM10.526 3.54766H11.6104V2.3651H10.526H9.44165V3.54766H10.526ZM10.526 2.3651V1.28074H8.1869V2.3651V3.44947H10.526V2.3651ZM8.1869 2.3651V1.28074H5.84778V2.3651V3.44947H8.1869V2.3651ZM5.84778 2.3651H4.76342V3.54766H5.84778H6.93215V2.3651H5.84778ZM0 4.73021V2.56148H-2.16873V4.73021H0ZM0 11.8255H-2.16873V13.9943H0V11.8255ZM2.33911 11.8255H4.50784V9.65679H2.33911V11.8255ZM2.33911 16.5557H0.170383V18.7245H2.33911V16.5557ZM4.67823 16.5557H6.84696V14.387H4.67823V16.5557ZM4.67823 21.2859H2.5095V23.4547H4.67823V21.2859ZM25.7303 21.2859V23.4547H27.899V21.2859H25.7303ZM25.7303 16.5557V14.387H23.5615V16.5557H25.7303ZM28.0694 16.5557V18.7245H30.2381V16.5557H28.0694ZM28.0694 11.8255V9.65679H25.9006V11.8255H28.0694ZM30.4085 11.8255V13.9943H32.5772V11.8255H30.4085ZM30.4085 4.73021H32.5772V2.56148H30.4085V4.73021ZM24.5607 0H26.7294V-2.16873H24.5607V0ZM19.8825 0V-2.16873H17.7137V0H19.8825ZM10.526 0H12.6947V-2.16873H10.526V0ZM5.84778 0V-2.16873H3.67905V0H5.84778ZM5.84778 1.18255H3.67905C3.67905 1.32228 3.67785 1.40427 3.67526 1.46045C3.67254 1.5195 3.67032 1.4946 3.68373 1.42681C3.69785 1.35548 3.73952 1.18182 3.85887 0.974636C3.98928 0.748257 4.17313 0.549994 4.39197 0.402496C4.59303 0.26698 4.76641 0.21286 4.84185 0.193118C4.9142 0.174187 4.94133 0.175484 4.8861 0.180448C4.7575 0.192004 4.53851 0.196374 4.09345 0.196374V2.3651V4.53383C4.49301 4.53383 4.91561 4.53274 5.27432 4.5005C5.58656 4.47244 6.22297 4.39909 6.81619 3.99926C7.55782 3.4994 7.83678 2.78381 7.9387 2.2687C8.02006 1.85753 8.01652 1.41925 8.01652 1.18255H5.84778ZM4.09345 2.3651V0.196374C3.69389 0.196374 3.27129 0.197473 2.91258 0.229708C2.60034 0.257767 1.96393 0.331118 1.37071 0.730949C0.62908 1.23081 0.350115 1.9464 0.248195 2.4615C0.16684 2.87268 0.170383 3.31096 0.170383 3.54766H2.33911H4.50784C4.50784 3.40793 4.50905 3.32594 4.51164 3.26976C4.51436 3.21071 4.51658 3.23561 4.50317 3.3034C4.48905 3.37473 4.44738 3.54839 4.32803 3.75557C4.19762 3.98195 4.01377 4.18021 3.79493 4.32771C3.59387 4.46323 3.42049 4.51735 3.34505 4.53709C3.2727 4.55602 3.24557 4.55472 3.3008 4.54976C3.42939 4.53821 3.64839 4.53383 4.09345 4.53383V2.3651ZM2.33911 3.54766H0.170383C0.170383 3.8024 0.159426 3.8409 0.16721 3.79703C0.178076 3.7358 0.250919 3.36339 0.602263 3.00814C0.956415 2.65005 1.33307 2.57221 1.40383 2.55937C1.45375 2.55031 1.42116 2.56148 1.16956 2.56148V4.73021V6.89894C1.43782 6.89894 1.81136 6.8937 2.17805 6.82717C2.56558 6.75687 3.16964 6.58051 3.68621 6.05819C4.19998 5.53872 4.37026 4.93637 4.43796 4.55485C4.50257 4.1907 4.50784 3.81856 4.50784 3.54766H2.33911ZM1.16956 4.73021V2.56148H0V4.73021V6.89894H1.16956V4.73021ZM0 4.73021H-2.16873V8.27787H0H2.16873V4.73021H0ZM0 8.27787H-2.16873V11.8255H0H2.16873V8.27787H0ZM0 11.8255V13.9943H1.16956V11.8255V9.65679H0V11.8255ZM1.16956 11.8255V13.9943H2.33911V11.8255V9.65679H1.16956V11.8255ZM2.33911 11.8255H0.170383V14.1906H2.33911H4.50784V11.8255H2.33911ZM2.33911 14.1906H0.170383V16.5557H2.33911H4.50784V14.1906H2.33911ZM2.33911 16.5557V18.7245H3.50867V16.5557V14.387H2.33911V16.5557ZM3.50867 16.5557V18.7245H4.67823V16.5557V14.387H3.50867V16.5557ZM4.67823 16.5557H2.5095V18.9208H4.67823H6.84696V16.5557H4.67823ZM4.67823 18.9208H2.5095V21.2859H4.67823H6.84696V18.9208H4.67823ZM4.67823 21.2859V23.4547H5.84778V21.2859V19.1172H4.67823V21.2859ZM5.84778 21.2859V23.4547C6.09939 23.4547 6.13198 23.4658 6.08206 23.4568C6.01129 23.4439 5.63464 23.3661 5.28049 23.008C4.92915 22.6528 4.8563 22.2803 4.84544 22.2191C4.83765 22.1752 4.84861 22.2137 4.84861 22.4685H7.01734H9.18607C9.18607 22.1976 9.1808 21.8254 9.11619 21.4613C9.04849 21.0798 8.87821 20.4774 8.36444 19.958C7.84787 19.4356 7.24381 19.2593 6.85628 19.189C6.48959 19.1224 6.11605 19.1172 5.84778 19.1172V21.2859ZM7.01734 22.4685H4.84861C4.84861 22.7052 4.84507 23.1435 4.92642 23.5546C5.02834 24.0697 5.30731 24.7853 6.04894 25.2852C6.64216 25.685 7.27857 25.7584 7.59081 25.7864C7.94952 25.8187 8.37212 25.8198 8.77168 25.8198V23.651V21.4823C8.32662 21.4823 8.10762 21.4779 7.97903 21.4664C7.9238 21.4614 7.95093 21.4601 8.02327 21.4791C8.09872 21.4988 8.2721 21.5529 8.47316 21.6884C8.692 21.8359 8.87585 22.0342 9.00626 22.2606C9.1256 22.4678 9.16728 22.6414 9.1814 22.7127C9.19481 22.7805 9.19259 22.8054 9.18987 22.7464C9.18728 22.6902 9.18607 22.6082 9.18607 22.4685H7.01734ZM8.77168 23.651V25.8198C9.21673 25.8198 9.43573 25.8241 9.56433 25.8357C9.61956 25.8407 9.59243 25.842 9.52008 25.823C9.44464 25.8033 9.27126 25.7492 9.0702 25.6137C8.85136 25.4662 8.66751 25.2679 8.5371 25.0415C8.41775 24.8343 8.37607 24.6607 8.36196 24.5893C8.34855 24.5215 8.35077 24.4966 8.35349 24.5557C8.35608 24.6119 8.35728 24.6939 8.35728 24.8336H10.526H12.6947C12.6947 24.5969 12.6983 24.1586 12.6169 23.7474C12.515 23.2323 12.236 22.5167 11.4944 22.0169C10.9012 21.6171 10.2648 21.5437 9.95255 21.5156C9.59384 21.4834 9.17124 21.4823 8.77168 21.4823V23.651ZM10.526 24.8336H8.35728C8.35728 25.0703 8.35374 25.5086 8.43509 25.9197C8.53701 26.4348 8.81598 27.1504 9.55761 27.6503C10.1508 28.0501 10.7872 28.1235 11.0995 28.1515C11.4582 28.1838 11.8808 28.1849 12.2803 28.1849V26.0161V23.8474C11.8353 23.8474 11.6163 23.843 11.4877 23.8315C11.4325 23.8265 11.4596 23.8252 11.5319 23.8442C11.6074 23.8639 11.7808 23.918 11.9818 24.0535C12.2007 24.201 12.3845 24.3993 12.5149 24.6257C12.6343 24.8329 12.676 25.0065 12.6901 25.0779C12.7035 25.1456 12.7013 25.1705 12.6985 25.1115C12.696 25.0553 12.6947 24.9733 12.6947 24.8336H10.526ZM12.2803 26.0161V28.1849C12.7254 28.1849 12.9444 28.1892 13.073 28.2008C13.1282 28.2058 13.1011 28.2071 13.0288 28.1881C12.9533 28.1684 12.7799 28.1143 12.5789 27.9788C12.36 27.8313 12.1762 27.633 12.0458 27.4066C11.9264 27.1994 11.8847 27.0258 11.8706 26.9544C11.8572 26.8867 11.8594 26.8617 11.8622 26.9208C11.8647 26.977 11.866 27.059 11.866 27.1987H14.0347H16.2034C16.2034 26.962 16.207 26.5237 16.1256 26.1125C16.0237 25.5974 15.7447 24.8819 15.0031 24.382C14.4099 23.9822 13.7735 23.9088 13.4612 23.8808C13.1025 23.8485 12.6799 23.8474 12.2803 23.8474V26.0161ZM14.0347 27.1987H11.866C11.866 27.4696 11.8712 27.8417 11.9358 28.2059C12.0035 28.5874 12.1738 29.1898 12.6876 29.7092C13.2042 30.2316 13.8082 30.4079 14.1957 30.4782C14.5624 30.5447 14.936 30.55 15.2042 30.55V28.3813V26.2125C14.9526 26.2125 14.92 26.2014 14.97 26.2104C15.0407 26.2232 15.4174 26.3011 15.7715 26.6592C16.1229 27.0144 16.1957 27.3868 16.2066 27.4481C16.2144 27.4919 16.2034 27.4534 16.2034 27.1987H14.0347ZM15.2042 28.3813V30.55C15.4725 30.55 15.846 30.5447 16.2127 30.4782C16.6003 30.4079 17.2043 30.2316 17.7209 29.7092C18.2347 29.1898 18.4049 28.5874 18.4726 28.2059C18.5373 27.8417 18.5425 27.4696 18.5425 27.1987H16.3738H14.2051C14.2051 27.4534 14.1941 27.4919 14.2019 27.4481C14.2128 27.3868 14.2856 27.0144 14.6369 26.6592C14.9911 26.3011 15.3678 26.2232 15.4385 26.2104C15.4884 26.2014 15.4558 26.2125 15.2042 26.2125V28.3813ZM16.3738 27.1987H18.5425C18.5425 27.059 18.5437 26.977 18.5463 26.9208C18.549 26.8617 18.5513 26.8866 18.5379 26.9544C18.5237 27.0258 18.4821 27.1994 18.3627 27.4066C18.2323 27.633 18.0485 27.8313 17.8296 27.9788C17.6286 28.1143 17.4552 28.1684 17.3797 28.1881C17.3074 28.2071 17.2803 28.2058 17.3355 28.2008C17.4641 28.1892 17.6831 28.1849 18.1281 28.1849V26.0161V23.8474C17.7286 23.8474 17.306 23.8485 16.9473 23.8808C16.635 23.9088 15.9986 23.9822 15.4054 24.382C14.6638 24.8819 14.3848 25.5974 14.2829 26.1125C14.2015 26.5237 14.2051 26.962 14.2051 27.1987H16.3738ZM18.1281 26.0161V28.1849C18.5277 28.1849 18.9503 28.1838 19.309 28.1515C19.6212 28.1235 20.2577 28.0501 20.8509 27.6503C21.5925 27.1504 21.8715 26.4349 21.9734 25.9197C22.0547 25.5086 22.0512 25.0703 22.0512 24.8336H19.8825H17.7137C17.7137 24.9733 17.7125 25.0553 17.7099 25.1115C17.7072 25.1705 17.705 25.1456 17.7184 25.0779C17.7325 25.0065 17.7742 24.8329 17.8936 24.6257C18.024 24.3993 18.2078 24.201 18.4266 24.0535C18.6277 23.918 18.8011 23.8639 18.8765 23.8442C18.9489 23.8252 18.976 23.8265 18.9208 23.8315C18.7922 23.843 18.5732 23.8474 18.1281 23.8474V26.0161ZM19.8825 24.8336H22.0512C22.0512 24.6939 22.0524 24.6119 22.055 24.5557C22.0577 24.4966 22.0599 24.5215 22.0465 24.5893C22.0324 24.6607 21.9907 24.8343 21.8714 25.0415C21.741 25.2679 21.5571 25.4662 21.3383 25.6137C21.1372 25.7492 20.9638 25.8033 20.8884 25.823C20.8161 25.842 20.7889 25.8407 20.8442 25.8357C20.9728 25.8241 21.1917 25.8198 21.6368 25.8198V23.651V21.4823C21.2372 21.4823 20.8146 21.4834 20.4559 21.5156C20.1437 21.5437 19.5073 21.6171 18.9141 22.0169C18.1724 22.5167 17.8935 23.2323 17.7916 23.7474C17.7102 24.1586 17.7137 24.5969 17.7137 24.8336H19.8825ZM21.6368 23.651V25.8198C22.0364 25.8198 22.459 25.8187 22.8177 25.7864C23.1299 25.7584 23.7663 25.685 24.3595 25.2852C25.1012 24.7853 25.3801 24.0697 25.4821 23.5546C25.5634 23.1435 25.5599 22.7052 25.5599 22.4685H23.3911H21.2224C21.2224 22.6082 21.2212 22.6902 21.2186 22.7464C21.2159 22.8054 21.2137 22.7805 21.2271 22.7127C21.2412 22.6414 21.2829 22.4678 21.4022 22.2606C21.5326 22.0342 21.7165 21.8359 21.9353 21.6884C22.1364 21.5529 22.3098 21.4988 22.3852 21.4791C22.4576 21.4601 22.4847 21.4614 22.4295 21.4664C22.3009 21.4779 22.0819 21.4823 21.6368 21.4823V23.651ZM23.3911 22.4685H25.5599C25.5599 22.2137 25.5708 22.1752 25.563 22.2191C25.5522 22.2803 25.4793 22.6528 25.128 23.008C24.7738 23.3661 24.3972 23.4439 24.3264 23.4568C24.2765 23.4658 24.3091 23.4547 24.5607 23.4547V21.2859V19.1172C24.2924 19.1172 23.9189 19.1224 23.5522 19.189C23.1647 19.2593 22.5606 19.4356 22.044 19.958C21.5303 20.4774 21.36 21.0798 21.2923 21.4613C21.2277 21.8254 21.2224 22.1976 21.2224 22.4685H23.3911ZM24.5607 21.2859V23.4547H25.7303V21.2859V19.1172H24.5607V21.2859ZM25.7303 21.2859H27.899V18.9208H25.7303H23.5615V21.2859H25.7303ZM25.7303 18.9208H27.899V16.5557H25.7303H23.5615V18.9208H25.7303ZM25.7303 16.5557V18.7245H26.8998V16.5557V14.387H25.7303V16.5557ZM26.8998 16.5557V18.7245H28.0694V16.5557V14.387H26.8998V16.5557ZM28.0694 16.5557H30.2381V14.1906H28.0694H25.9006V16.5557H28.0694ZM28.0694 14.1906H30.2381V11.8255H28.0694H25.9006V14.1906H28.0694ZM28.0694 11.8255V13.9943H29.2389V11.8255V9.65679H28.0694V11.8255ZM29.2389 11.8255V13.9943H30.4085V11.8255V9.65679H29.2389V11.8255ZM30.4085 11.8255H32.5772V8.27787H30.4085H28.2398V11.8255H30.4085ZM30.4085 8.27787H32.5772V4.73021H30.4085H28.2398V8.27787H30.4085ZM30.4085 4.73021V2.56148H29.2389V4.73021V6.89894H30.4085V4.73021ZM29.2389 4.73021V2.56148C28.9873 2.56148 28.9547 2.55031 29.0047 2.55937C29.0754 2.57221 29.4521 2.65005 29.8062 3.00814C30.1576 3.36338 30.2304 3.7358 30.2413 3.79703C30.2491 3.8409 30.2381 3.8024 30.2381 3.54766H28.0694H25.9006C25.9006 3.81856 25.9059 4.1907 25.9705 4.55485C26.0382 4.93637 26.2085 5.53872 26.7223 6.05819C27.2388 6.58051 27.8429 6.75687 28.2304 6.82717C28.5971 6.8937 28.9707 6.89894 29.2389 6.89894V4.73021ZM28.0694 3.54766H30.2381C30.2381 3.31096 30.2416 2.87268 30.1603 2.4615C30.0584 1.9464 29.7794 1.23081 29.0378 0.730949C28.4446 0.331118 27.8081 0.257767 27.4959 0.229708C27.1372 0.197473 26.7146 0.196374 26.315 0.196374V2.3651V4.53383C26.7601 4.53383 26.9791 4.53821 27.1077 4.54976C27.1629 4.55472 27.1358 4.55602 27.0634 4.53709C26.988 4.51735 26.8146 4.46323 26.6136 4.32771C26.3947 4.18022 26.2109 3.98195 26.0805 3.75557C25.9611 3.54839 25.9194 3.37473 25.9053 3.3034C25.8919 3.23561 25.8941 3.21071 25.8968 3.26976C25.8994 3.32594 25.9006 3.40793 25.9006 3.54766H28.0694ZM26.315 2.3651V0.196374C25.87 0.196374 25.651 0.192004 25.5224 0.180448C25.4672 0.175484 25.4943 0.174187 25.5666 0.193118C25.6421 0.21286 25.8155 0.266981 26.0165 0.402497C26.2354 0.549995 26.4192 0.748258 26.5496 0.974638C26.669 1.18182 26.7106 1.35548 26.7248 1.42681C26.7382 1.4946 26.7359 1.5195 26.7332 1.46045C26.7306 1.40427 26.7294 1.32228 26.7294 1.18255H24.5607H22.392C22.392 1.41925 22.3884 1.85753 22.4698 2.2687C22.5717 2.78381 22.8507 3.4994 23.5923 3.99926C24.1855 4.39909 24.8219 4.47244 25.1342 4.5005C25.4929 4.53274 25.9155 4.53383 26.315 4.53383V2.3651ZM24.5607 1.18255H26.7294V0H24.5607H22.392V1.18255H24.5607ZM24.5607 0V-2.16873H22.2216V0V2.16873H24.5607V0ZM22.2216 0V-2.16873H19.8825V0V2.16873H22.2216V0ZM19.8825 0H17.7137V1.18255H19.8825H22.0512V0H19.8825ZM19.8825 1.18255H17.7137C17.7137 1.32228 17.7125 1.40427 17.7099 1.46045C17.7072 1.5195 17.705 1.4946 17.7184 1.42681C17.7325 1.35548 17.7742 1.18182 17.8936 0.974635C18.024 0.748255 18.2078 0.549993 18.4267 0.402495C18.6277 0.26698 18.8011 0.21286 18.8765 0.193118C18.9489 0.174187 18.976 0.175484 18.9208 0.180448C18.7922 0.192004 18.5732 0.196374 18.1281 0.196374V2.3651V4.53383C18.5277 4.53383 18.9503 4.53274 19.309 4.5005C19.6212 4.47244 20.2577 4.39909 20.8509 3.99926C21.5925 3.4994 21.8715 2.78381 21.9734 2.2687C22.0547 1.85753 22.0512 1.41925 22.0512 1.18255H19.8825ZM18.1281 2.3651V0.196374C17.7286 0.196374 17.306 0.197473 16.9473 0.229708C16.635 0.257767 15.9986 0.331118 15.4054 0.73095C14.6638 1.23081 14.3848 1.9464 14.2829 2.46151C14.2015 2.87268 14.2051 3.31096 14.2051 3.54766H16.3738H18.5425C18.5425 3.40793 18.5437 3.32594 18.5463 3.26976C18.549 3.21071 18.5513 3.23561 18.5379 3.3034C18.5237 3.37473 18.4821 3.54839 18.3627 3.75557C18.2323 3.98195 18.0485 4.18021 17.8296 4.32771C17.6286 4.46323 17.4552 4.51735 17.3797 4.53709C17.3074 4.55602 17.2803 4.55472 17.3355 4.54976C17.4641 4.53821 17.6831 4.53383 18.1281 4.53383V2.3651ZM16.3738 3.54766H14.2051C14.2051 3.8024 14.1941 3.8409 14.2019 3.79703C14.2128 3.7358 14.2856 3.36338 14.6369 3.00814C14.9911 2.65005 15.3678 2.57221 15.4385 2.55937C15.4884 2.55031 15.4558 2.56148 15.2042 2.56148V4.73021V6.89894C15.4725 6.89894 15.846 6.8937 16.2127 6.82717C16.6003 6.75687 17.2043 6.58051 17.7209 6.05819C18.2347 5.53872 18.4049 4.93637 18.4726 4.55485C18.5373 4.1907 18.5425 3.81856 18.5425 3.54766H16.3738ZM15.2042 4.73021V2.56148C14.9526 2.56148 14.92 2.55031 14.97 2.55937C15.0407 2.57221 15.4174 2.65005 15.7715 3.00814C16.1229 3.36339 16.1957 3.7358 16.2066 3.79703C16.2144 3.8409 16.2034 3.8024 16.2034 3.54766H14.0347H11.866C11.866 3.81856 11.8712 4.1907 11.9358 4.55485C12.0035 4.93637 12.1738 5.53872 12.6876 6.05819C13.2042 6.58051 13.8082 6.75687 14.1957 6.82717C14.5624 6.8937 14.936 6.89894 15.2042 6.89894V4.73021ZM14.0347 3.54766H16.2034C16.2034 3.31096 16.207 2.87268 16.1256 2.4615C16.0237 1.9464 15.7447 1.23081 15.0031 0.73095C14.4099 0.331118 13.7735 0.257767 13.4612 0.229708C13.1025 0.197473 12.6799 0.196374 12.2803 0.196374V2.3651V4.53383C12.7254 4.53383 12.9444 4.53821 13.073 4.54976C13.1282 4.55472 13.1011 4.55602 13.0288 4.53709C12.9533 4.51735 12.7799 4.46323 12.5789 4.32771C12.36 4.18021 12.1762 3.98195 12.0458 3.75557C11.9264 3.54839 11.8847 3.37473 11.8706 3.3034C11.8572 3.23561 11.8594 3.21071 11.8622 3.26976C11.8647 3.32594 11.866 3.40793 11.866 3.54766H14.0347ZM12.2803 2.3651V0.196374C11.8353 0.196374 11.6163 0.192004 11.4877 0.180448C11.4325 0.175484 11.4596 0.174187 11.5319 0.193118C11.6074 0.21286 11.7808 0.26698 11.9818 0.402496C12.2007 0.549994 12.3845 0.748257 12.5149 0.974636C12.6343 1.18182 12.676 1.35548 12.6901 1.42681C12.7035 1.4946 12.7013 1.5195 12.6985 1.46045C12.696 1.40427 12.6947 1.32228 12.6947 1.18255H10.526H8.35728C8.35728 1.41925 8.35374 1.85753 8.43509 2.2687C8.53701 2.78381 8.81598 3.4994 9.55761 3.99926C10.1508 4.39909 10.7872 4.47244 11.0995 4.5005C11.4582 4.53274 11.8808 4.53383 12.2803 4.53383V2.3651ZM10.526 1.18255H12.6947V0H10.526H8.35728V1.18255H10.526ZM10.526 0V-2.16873H8.1869V0V2.16873H10.526V0ZM8.1869 0V-2.16873H5.84778V0V2.16873H8.1869V0ZM5.84778 0H3.67905V1.18255H5.84778H8.01652V0H5.84778Z" fill="#141212" mask="url(#path-1-inside-1_954_13186)"/>
</svg>
