<svg width="57" height="57" viewBox="0 0 57 57" fill="none" xmlns="http://www.w3.org/2000/svg">
<g filter="url(#filter0_iiiiiiii_1318_32706)">
<rect width="57" height="57" fill="#F2F2F2"/>
<mask id="path-1-inside-1_1318_32706" fill="white">
<path fill-rule="evenodd" clip-rule="evenodd" d="M18.3158 13.4501C18.3158 14.5889 18.2507 14.6327 16.5615 14.6327C14.8722 14.6327 14.8071 14.6764 14.8071 15.8152C14.8071 16.8665 14.6773 16.9978 13.6376 16.9978H12.468V20.5454V24.0931H13.6376H14.8071V26.4582V28.8233H15.9767H17.1462V31.1884V33.5535H18.3158C19.3555 33.5535 19.4854 33.6848 19.4854 34.7361C19.4854 35.8749 19.5505 35.9186 21.2397 35.9186C22.9289 35.9186 22.994 35.9624 22.994 37.1012C22.994 38.24 23.0591 38.2837 24.7484 38.2837C26.4376 38.2837 26.5027 38.3275 26.5027 39.4663C26.5027 40.5176 26.6325 40.6488 27.6723 40.6488C28.712 40.6488 28.8418 40.5176 28.8418 39.4663C28.8418 38.3275 28.9069 38.2837 30.5962 38.2837C32.2854 38.2837 32.3505 38.24 32.3505 37.1012C32.3505 35.9624 32.4156 35.9186 34.1048 35.9186C35.7941 35.9186 35.8592 35.8749 35.8592 34.7361C35.8592 33.6848 35.989 33.5535 37.0287 33.5535H38.1983V31.1884V28.8233H39.3678H40.5374V26.4582V24.0931H41.7069H42.8765V20.5454V16.9978H41.7069C40.6672 16.9978 40.5374 16.8665 40.5374 15.8152C40.5374 14.6764 40.4723 14.6327 38.7831 14.6327C37.0938 14.6327 37.0287 14.5889 37.0287 13.4501V12.2676H34.6896H32.3505V13.4501C32.3505 14.5889 32.2854 14.6327 30.5962 14.6327C28.9069 14.6327 28.8418 14.6764 28.8418 15.8152C28.8418 16.8665 28.712 16.9978 27.6723 16.9978C26.6325 16.9978 26.5027 16.8665 26.5027 15.8152C26.5027 14.6764 26.4376 14.6327 24.7484 14.6327C23.0591 14.6327 22.994 14.5889 22.994 13.4501V12.2676H20.6549H18.3158V13.4501ZM18.3158 15.8152C18.3158 16.954 18.2507 16.9978 16.5615 16.9978H14.8071V20.5454V24.0931H15.9767H17.1462V26.4582V28.8233H18.3158H19.4854V31.1884V33.5535H21.2397C22.9289 33.5535 22.994 33.5973 22.994 34.7361C22.994 35.8749 23.0591 35.9186 24.7484 35.9186C26.4376 35.9186 26.5027 35.9624 26.5027 37.1012C26.5027 38.1525 26.6325 38.2837 27.6723 38.2837C28.712 38.2837 28.8418 38.1525 28.8418 37.1012C28.8418 35.9624 28.9069 35.9186 30.5962 35.9186C32.2854 35.9186 32.3505 35.8749 32.3505 34.7361C32.3505 33.5973 32.4156 33.5535 34.1048 33.5535H35.8592V31.1884V28.8233H37.0287H38.1983V26.4582V24.0931H39.3678H40.5374V20.5454V16.9978H38.7831C37.0938 16.9978 37.0287 16.954 37.0287 15.8152V14.6327H34.6896H32.3505V15.8152C32.3505 16.954 32.2854 16.9978 30.5962 16.9978C28.9069 16.9978 28.8418 17.0415 28.8418 18.1803C28.8418 19.2316 28.712 19.3629 27.6723 19.3629C26.6325 19.3629 26.5027 19.2316 26.5027 18.1803C26.5027 17.0415 26.4376 16.9978 24.7484 16.9978C23.0591 16.9978 22.994 16.954 22.994 15.8152V14.6327H20.6549H18.3158V15.8152Z"/>
<path d="M18.3158 15.8152C18.3158 16.954 18.2507 16.9978 16.5615 16.9978H14.8071V20.5454V24.0931H15.9767H17.1462V26.4582V28.8233H18.3158H19.4854V31.1884V33.5535H21.2397C22.9289 33.5535 22.994 33.5973 22.994 34.7361C22.994 35.8749 23.0591 35.9186 24.7484 35.9186C26.4376 35.9186 26.5027 35.9624 26.5027 37.1012C26.5027 38.1525 26.6325 38.2837 27.6723 38.2837C28.712 38.2837 28.8418 38.1525 28.8418 37.1012C28.8418 35.9624 28.9069 35.9186 30.5962 35.9186C32.2854 35.9186 32.3505 35.8749 32.3505 34.7361C32.3505 33.5973 32.4156 33.5535 34.1048 33.5535H35.8592V31.1884V28.8233H37.0287H38.1983V26.4582V24.0931H39.3678H40.5374V20.5454V16.9978H38.7831C37.0938 16.9978 37.0287 16.954 37.0287 15.8152V14.6327H34.6896H32.3505V15.8152C32.3505 16.954 32.2854 16.9978 30.5962 16.9978C28.9069 16.9978 28.8418 17.0415 28.8418 18.1803C28.8418 19.2316 28.712 19.3629 27.6723 19.3629C26.6325 19.3629 26.5027 19.2316 26.5027 18.1803C26.5027 17.0415 26.4376 16.9978 24.7484 16.9978C23.0591 16.9978 22.994 16.954 22.994 15.8152V14.6327H20.6549H18.3158V15.8152Z"/>
</mask>
<path fill-rule="evenodd" clip-rule="evenodd" d="M18.3158 13.4501C18.3158 14.5889 18.2507 14.6327 16.5615 14.6327C14.8722 14.6327 14.8071 14.6764 14.8071 15.8152C14.8071 16.8665 14.6773 16.9978 13.6376 16.9978H12.468V20.5454V24.0931H13.6376H14.8071V26.4582V28.8233H15.9767H17.1462V31.1884V33.5535H18.3158C19.3555 33.5535 19.4854 33.6848 19.4854 34.7361C19.4854 35.8749 19.5505 35.9186 21.2397 35.9186C22.9289 35.9186 22.994 35.9624 22.994 37.1012C22.994 38.24 23.0591 38.2837 24.7484 38.2837C26.4376 38.2837 26.5027 38.3275 26.5027 39.4663C26.5027 40.5176 26.6325 40.6488 27.6723 40.6488C28.712 40.6488 28.8418 40.5176 28.8418 39.4663C28.8418 38.3275 28.9069 38.2837 30.5962 38.2837C32.2854 38.2837 32.3505 38.24 32.3505 37.1012C32.3505 35.9624 32.4156 35.9186 34.1048 35.9186C35.7941 35.9186 35.8592 35.8749 35.8592 34.7361C35.8592 33.6848 35.989 33.5535 37.0287 33.5535H38.1983V31.1884V28.8233H39.3678H40.5374V26.4582V24.0931H41.7069H42.8765V20.5454V16.9978H41.7069C40.6672 16.9978 40.5374 16.8665 40.5374 15.8152C40.5374 14.6764 40.4723 14.6327 38.7831 14.6327C37.0938 14.6327 37.0287 14.5889 37.0287 13.4501V12.2676H34.6896H32.3505V13.4501C32.3505 14.5889 32.2854 14.6327 30.5962 14.6327C28.9069 14.6327 28.8418 14.6764 28.8418 15.8152C28.8418 16.8665 28.712 16.9978 27.6723 16.9978C26.6325 16.9978 26.5027 16.8665 26.5027 15.8152C26.5027 14.6764 26.4376 14.6327 24.7484 14.6327C23.0591 14.6327 22.994 14.5889 22.994 13.4501V12.2676H20.6549H18.3158V13.4501ZM18.3158 15.8152C18.3158 16.954 18.2507 16.9978 16.5615 16.9978H14.8071V20.5454V24.0931H15.9767H17.1462V26.4582V28.8233H18.3158H19.4854V31.1884V33.5535H21.2397C22.9289 33.5535 22.994 33.5973 22.994 34.7361C22.994 35.8749 23.0591 35.9186 24.7484 35.9186C26.4376 35.9186 26.5027 35.9624 26.5027 37.1012C26.5027 38.1525 26.6325 38.2837 27.6723 38.2837C28.712 38.2837 28.8418 38.1525 28.8418 37.1012C28.8418 35.9624 28.9069 35.9186 30.5962 35.9186C32.2854 35.9186 32.3505 35.8749 32.3505 34.7361C32.3505 33.5973 32.4156 33.5535 34.1048 33.5535H35.8592V31.1884V28.8233H37.0287H38.1983V26.4582V24.0931H39.3678H40.5374V20.5454V16.9978H38.7831C37.0938 16.9978 37.0287 16.954 37.0287 15.8152V14.6327H34.6896H32.3505V15.8152C32.3505 16.954 32.2854 16.9978 30.5962 16.9978C28.9069 16.9978 28.8418 17.0415 28.8418 18.1803C28.8418 19.2316 28.712 19.3629 27.6723 19.3629C26.6325 19.3629 26.5027 19.2316 26.5027 18.1803C26.5027 17.0415 26.4376 16.9978 24.7484 16.9978C23.0591 16.9978 22.994 16.954 22.994 15.8152V14.6327H20.6549H18.3158V15.8152Z" fill="#FF7723"/>
<path d="M18.3158 15.8152C18.3158 16.954 18.2507 16.9978 16.5615 16.9978H14.8071V20.5454V24.0931H15.9767H17.1462V26.4582V28.8233H18.3158H19.4854V31.1884V33.5535H21.2397C22.9289 33.5535 22.994 33.5973 22.994 34.7361C22.994 35.8749 23.0591 35.9186 24.7484 35.9186C26.4376 35.9186 26.5027 35.9624 26.5027 37.1012C26.5027 38.1525 26.6325 38.2837 27.6723 38.2837C28.712 38.2837 28.8418 38.1525 28.8418 37.1012C28.8418 35.9624 28.9069 35.9186 30.5962 35.9186C32.2854 35.9186 32.3505 35.8749 32.3505 34.7361C32.3505 33.5973 32.4156 33.5535 34.1048 33.5535H35.8592V31.1884V28.8233H37.0287H38.1983V26.4582V24.0931H39.3678H40.5374V20.5454V16.9978H38.7831C37.0938 16.9978 37.0287 16.954 37.0287 15.8152V14.6327H34.6896H32.3505V15.8152C32.3505 16.954 32.2854 16.9978 30.5962 16.9978C28.9069 16.9978 28.8418 17.0415 28.8418 18.1803C28.8418 19.2316 28.712 19.3629 27.6723 19.3629C26.6325 19.3629 26.5027 19.2316 26.5027 18.1803C26.5027 17.0415 26.4376 16.9978 24.7484 16.9978C23.0591 16.9978 22.994 16.954 22.994 15.8152V14.6327H20.6549H18.3158V15.8152Z" fill="#FF7723"/>
<path d="M14.8071 24.0931H13.7228V25.1775H14.8071V24.0931ZM17.1462 28.8233H16.0619V29.9077H17.1462V28.8233ZM38.1983 28.8233V29.9077H39.2826V28.8233H38.1983ZM40.5374 24.0931V25.1775H41.6218V24.0931H40.5374ZM14.8071 16.9978V15.9134H13.7228V16.9978H14.8071ZM17.1462 24.0931H18.2306V23.0087H17.1462V24.0931ZM19.4854 28.8233H20.5697V27.7389H19.4854V28.8233ZM19.4854 33.5535H18.401V34.6379H19.4854V33.5535ZM35.8592 33.5535V34.6379H36.9435V33.5535H35.8592ZM35.8592 28.8233V27.7389H34.7748V28.8233H35.8592ZM38.1983 24.0931V23.0087H37.1139V24.0931H38.1983ZM40.5374 16.9978H41.6218V15.9134H40.5374V16.9978ZM37.0287 14.6327H38.1131V13.5483H37.0287V14.6327ZM32.3505 14.6327V13.5483H31.2661V14.6327H32.3505ZM22.994 14.6327H24.0784V13.5483H22.994V14.6327ZM18.3158 14.6327V13.5483H17.2314V14.6327H18.3158ZM18.3158 15.8152H17.2314C17.2314 15.9563 17.2303 16.0599 17.2265 16.1431C17.2226 16.2277 17.2169 16.2628 17.2155 16.27C17.2144 16.2754 17.2236 16.2231 17.2665 16.1486C17.315 16.0645 17.385 15.989 17.466 15.9344C17.5381 15.8858 17.5898 15.8734 17.5844 15.8748C17.5774 15.8767 17.5397 15.8852 17.4512 15.8931C17.265 15.9099 16.9951 15.9134 16.5615 15.9134V16.9978V18.0822C16.9724 18.0822 17.3441 18.0802 17.6453 18.0532C17.9232 18.0282 18.3247 17.971 18.6782 17.7328C19.1058 17.4445 19.2758 17.0306 19.343 16.6909C19.3999 16.4032 19.4002 16.0759 19.4002 15.8152H18.3158ZM16.5615 16.9978V15.9134H14.8071V16.9978V18.0822H16.5615V16.9978ZM14.8071 16.9978H13.7228V20.5454H14.8071H15.8915V16.9978H14.8071ZM14.8071 20.5454H13.7228V24.0931H14.8071H15.8915V20.5454H14.8071ZM14.8071 24.0931V25.1775H15.9767V24.0931V23.0087H14.8071V24.0931ZM15.9767 24.0931V25.1775H17.1462V24.0931V23.0087H15.9767V24.0931ZM17.1462 24.0931H16.0619V26.4582H17.1462H18.2306V24.0931H17.1462ZM17.1462 26.4582H16.0619V28.8233H17.1462H18.2306V26.4582H17.1462ZM17.1462 28.8233V29.9077H18.3158V28.8233V27.7389H17.1462V28.8233ZM18.3158 28.8233V29.9077H19.4854V28.8233V27.7389H18.3158V28.8233ZM19.4854 28.8233H18.401V31.1884H19.4854H20.5697V28.8233H19.4854ZM19.4854 31.1884H18.401V33.5535H19.4854H20.5697V31.1884H19.4854ZM19.4854 33.5535V34.6379H21.2397V33.5535V32.4692H19.4854V33.5535ZM21.2397 33.5535V34.6379C21.6734 34.6379 21.9433 34.6414 22.1294 34.6582C22.2179 34.6661 22.2556 34.6746 22.2626 34.6765C22.268 34.6779 22.2164 34.6655 22.1443 34.6169C22.0633 34.5623 21.9932 34.4868 21.9447 34.4027C21.9018 34.3282 21.8927 34.2759 21.8937 34.2813C21.8951 34.2885 21.9008 34.3236 21.9047 34.4082C21.9086 34.4914 21.9097 34.595 21.9097 34.7361H22.994H24.0784C24.0784 34.4754 24.0781 34.1481 24.0212 33.8604C23.954 33.5207 23.7841 33.1068 23.3564 32.8186C23.0029 32.5803 22.6015 32.5231 22.3235 32.4981C22.0223 32.4711 21.6506 32.4692 21.2397 32.4692V33.5535ZM22.994 34.7361H21.9097C21.9097 34.9968 21.9099 35.324 21.9669 35.6117C22.0341 35.9514 22.204 36.3653 22.6317 36.6536C22.9851 36.8918 23.3866 36.949 23.6646 36.974C23.9657 37.0011 24.3374 37.003 24.7484 37.003V35.9186V34.8343C24.3147 34.8343 24.0448 34.8307 23.8587 34.814C23.7701 34.806 23.7324 34.7975 23.7255 34.7957C23.72 34.7943 23.7717 34.8066 23.8438 34.8552C23.9248 34.9098 23.9949 34.9853 24.0433 35.0694C24.0862 35.1439 24.0954 35.1962 24.0943 35.1908C24.0929 35.1836 24.0872 35.1485 24.0833 35.0639C24.0795 34.9807 24.0784 34.8771 24.0784 34.7361H22.994ZM24.7484 35.9186V37.003C25.182 37.003 25.4519 37.0065 25.6381 37.0233C25.7266 37.0312 25.7643 37.0397 25.7713 37.0416C25.7767 37.043 25.725 37.0306 25.6529 36.982C25.5719 36.9275 25.5019 36.8519 25.4534 36.7678C25.4105 36.6933 25.4013 36.641 25.4024 36.6464C25.4038 36.6536 25.4095 36.6887 25.4134 36.7733C25.4172 36.8565 25.4183 36.9601 25.4183 37.1012H26.5027H27.5871C27.5871 36.8405 27.5868 36.5132 27.5299 36.2255C27.4627 35.8858 27.2927 35.4719 26.8651 35.1837C26.5116 34.9454 26.1101 34.8882 25.8322 34.8632C25.531 34.8362 25.1593 34.8343 24.7484 34.8343V35.9186ZM26.5027 37.1012H25.4183C25.4183 37.368 25.425 37.6568 25.4715 37.9189C25.5196 38.1897 25.6291 38.5484 25.9266 38.8492C26.2255 39.1514 26.5844 39.2642 26.8573 39.3137C27.1199 39.3614 27.4082 39.3681 27.6723 39.3681V38.2837V37.1994C27.5518 37.1994 27.4579 37.1974 27.3828 37.1933C27.3066 37.1891 27.2644 37.1835 27.2444 37.1798C27.2244 37.1762 27.2457 37.1779 27.2889 37.1973C27.3371 37.2189 27.4036 37.2585 27.4686 37.3242C27.5333 37.3897 27.5715 37.4557 27.5917 37.5018C27.6098 37.5431 27.6109 37.5622 27.6069 37.54C27.603 37.518 27.5973 37.4737 27.5931 37.3958C27.589 37.3189 27.5871 37.2233 27.5871 37.1012H26.5027ZM27.6723 38.2837V39.3681C27.9364 39.3681 28.2247 39.3614 28.4872 39.3137C28.7602 39.2642 29.119 39.1514 29.4179 38.8492C29.7154 38.5484 29.8249 38.1897 29.873 37.9189C29.9195 37.6568 29.9262 37.368 29.9262 37.1012H28.8418H27.7575C27.7575 37.2233 27.7555 37.3189 27.7514 37.3958C27.7472 37.4737 27.7415 37.518 27.7376 37.54C27.7337 37.5622 27.7347 37.5431 27.7528 37.5018C27.7731 37.4557 27.8112 37.3897 27.876 37.3242C27.9409 37.2585 28.0075 37.2189 28.0556 37.1973C28.0988 37.1779 28.1201 37.1762 28.1001 37.1798C28.0801 37.1835 28.0379 37.1891 27.9617 37.1933C27.8866 37.1974 27.7927 37.1994 27.6723 37.1994V38.2837ZM28.8418 37.1012H29.9262C29.9262 36.9601 29.9273 36.8565 29.9311 36.7733C29.935 36.6887 29.9407 36.6536 29.9421 36.6464C29.9432 36.641 29.934 36.6933 29.8911 36.7678C29.8427 36.8519 29.7726 36.9274 29.6916 36.982C29.6195 37.0306 29.5678 37.043 29.5732 37.0416C29.5802 37.0397 29.6179 37.0312 29.7064 37.0233C29.8926 37.0065 30.1625 37.003 30.5962 37.003V35.9186V34.8343C30.1852 34.8343 29.8135 34.8362 29.5123 34.8632C29.2344 34.8882 28.8329 34.9454 28.4795 35.1837C28.0518 35.4719 27.8818 35.8858 27.8146 36.2255C27.7577 36.5132 27.7575 36.8405 27.7575 37.1012H28.8418ZM30.5962 35.9186V37.003C31.0071 37.003 31.3788 37.0011 31.68 36.974C31.9579 36.949 32.3594 36.8918 32.7128 36.6536C33.1405 36.3653 33.3105 35.9514 33.3777 35.6117C33.4346 35.324 33.4349 34.9968 33.4349 34.7361H32.3505H31.2661C31.2661 34.8771 31.265 34.9807 31.2612 35.0639C31.2573 35.1485 31.2516 35.1836 31.2502 35.1908C31.2491 35.1962 31.2583 35.1439 31.3012 35.0694C31.3496 34.9853 31.4197 34.9098 31.5007 34.8552C31.5728 34.8066 31.6245 34.7943 31.6191 34.7957C31.6121 34.7975 31.5744 34.806 31.4859 34.814C31.2997 34.8307 31.0298 34.8343 30.5962 34.8343V35.9186ZM32.3505 34.7361H33.4349C33.4349 34.595 33.436 34.4914 33.4398 34.4082C33.4437 34.3236 33.4494 34.2885 33.4508 34.2813C33.4519 34.2759 33.4427 34.3282 33.3998 34.4027C33.3513 34.4868 33.2812 34.5623 33.2003 34.6169C33.1281 34.6655 33.0765 34.6779 33.0819 34.6765C33.0889 34.6746 33.1266 34.6661 33.2151 34.6582C33.4012 34.6414 33.6711 34.6379 34.1048 34.6379V33.5535V32.4692C33.6939 32.4692 33.3222 32.4711 33.021 32.4981C32.7431 32.5231 32.3416 32.5803 31.9881 32.8186C31.5605 33.1068 31.3905 33.5207 31.3233 33.8604C31.2664 34.1481 31.2661 34.4754 31.2661 34.7361H32.3505ZM34.1048 33.5535V34.6379H35.8592V33.5535V32.4692H34.1048V33.5535ZM35.8592 33.5535H36.9435V31.1884H35.8592H34.7748V33.5535H35.8592ZM35.8592 31.1884H36.9435V28.8233H35.8592H34.7748V31.1884H35.8592ZM35.8592 28.8233V29.9077H37.0287V28.8233V27.7389H35.8592V28.8233ZM37.0287 28.8233V29.9077H38.1983V28.8233V27.7389H37.0287V28.8233ZM38.1983 28.8233H39.2826V26.4582H38.1983H37.1139V28.8233H38.1983ZM38.1983 26.4582H39.2826V24.0931H38.1983H37.1139V26.4582H38.1983ZM38.1983 24.0931V25.1775H39.3678V24.0931V23.0087H38.1983V24.0931ZM39.3678 24.0931V25.1775H40.5374V24.0931V23.0087H39.3678V24.0931ZM40.5374 24.0931H41.6218V20.5454H40.5374H39.453V24.0931H40.5374ZM40.5374 20.5454H41.6218V16.9978H40.5374H39.453V20.5454H40.5374ZM40.5374 16.9978V15.9134H38.7831V16.9978V18.0822H40.5374V16.9978ZM38.7831 16.9978V15.9134C38.3494 15.9134 38.0795 15.9099 37.8933 15.8931C37.8048 15.8852 37.7671 15.8767 37.7601 15.8748C37.7547 15.8734 37.8064 15.8858 37.8785 15.9344C37.9595 15.989 38.0296 16.0645 38.078 16.1486C38.1209 16.2231 38.1301 16.2754 38.129 16.27C38.1276 16.2628 38.1219 16.2277 38.118 16.1431C38.1142 16.0599 38.1131 15.9563 38.1131 15.8152H37.0287H35.9444C35.9444 16.0759 35.9446 16.4032 36.0015 16.6909C36.0687 17.0306 36.2387 17.4445 36.6664 17.7328C37.0198 17.971 37.4213 18.0282 37.6992 18.0532C38.0004 18.0802 38.3721 18.0822 38.7831 18.0822V16.9978ZM37.0287 15.8152H38.1131V14.6327H37.0287H35.9444V15.8152H37.0287ZM37.0287 14.6327V13.5483H34.6896V14.6327V15.717H37.0287V14.6327ZM34.6896 14.6327V13.5483H32.3505V14.6327V15.717H34.6896V14.6327ZM32.3505 14.6327H31.2661V15.8152H32.3505H33.4349V14.6327H32.3505ZM32.3505 15.8152H31.2661C31.2661 15.9563 31.265 16.0599 31.2612 16.1431C31.2573 16.2277 31.2516 16.2628 31.2502 16.27C31.2491 16.2754 31.2583 16.2231 31.3012 16.1486C31.3496 16.0645 31.4197 15.989 31.5007 15.9344C31.5728 15.8858 31.6245 15.8734 31.6191 15.8748C31.6121 15.8767 31.5744 15.8852 31.4859 15.8931C31.2997 15.9099 31.0298 15.9134 30.5962 15.9134V16.9978V18.0822C31.0071 18.0822 31.3788 18.0802 31.68 18.0532C31.9579 18.0282 32.3594 17.971 32.7128 17.7328C33.1405 17.4445 33.3105 17.0306 33.3777 16.6909C33.4346 16.4032 33.4349 16.0759 33.4349 15.8152H32.3505ZM30.5962 16.9978V15.9134C30.1852 15.9134 29.8135 15.9153 29.5123 15.9424C29.2344 15.9674 28.8329 16.0246 28.4795 16.2628C28.0518 16.5511 27.8818 16.965 27.8146 17.3047C27.7577 17.5924 27.7575 17.9196 27.7575 18.1803H28.8418H29.9262C29.9262 18.0393 29.9273 17.9357 29.9311 17.8525C29.935 17.7679 29.9407 17.7328 29.9421 17.7256C29.9432 17.7202 29.934 17.7725 29.8911 17.847C29.8427 17.9311 29.7726 18.0066 29.6916 18.0612C29.6195 18.1098 29.5678 18.1221 29.5732 18.1207C29.5802 18.1189 29.6179 18.1104 29.7064 18.1024C29.8926 18.0857 30.1625 18.0822 30.5962 18.0822V16.9978ZM28.8418 18.1803H27.7575C27.7575 18.3025 27.7555 18.3981 27.7514 18.475C27.7472 18.5529 27.7415 18.5971 27.7376 18.6192C27.7337 18.6414 27.7347 18.6223 27.7528 18.581C27.7731 18.5349 27.8112 18.4688 27.876 18.4033C27.9409 18.3377 28.0075 18.298 28.0556 18.2764C28.0988 18.2571 28.1201 18.2554 28.1001 18.259C28.0801 18.2626 28.0379 18.2683 27.9617 18.2725C27.8866 18.2766 27.7927 18.2785 27.6723 18.2785V19.3629V20.4473C27.9364 20.4473 28.2247 20.4405 28.4872 20.3929C28.7602 20.3434 29.119 20.2306 29.4179 19.9284C29.7154 19.6276 29.8249 19.2689 29.873 18.9981C29.9195 18.7359 29.9262 18.4472 29.9262 18.1803H28.8418ZM27.6723 19.3629V18.2785C27.5518 18.2785 27.4579 18.2766 27.3828 18.2725C27.3066 18.2683 27.2644 18.2626 27.2444 18.259C27.2244 18.2554 27.2457 18.2571 27.2889 18.2764C27.3371 18.298 27.4036 18.3377 27.4686 18.4033C27.5333 18.4688 27.5715 18.5349 27.5917 18.581C27.6098 18.6223 27.6109 18.6414 27.6069 18.6192C27.603 18.5971 27.5973 18.5529 27.5931 18.475C27.589 18.3981 27.5871 18.3025 27.5871 18.1803H26.5027H25.4183C25.4183 18.4472 25.425 18.7359 25.4715 18.9981C25.5196 19.2689 25.6291 19.6276 25.9266 19.9284C26.2255 20.2306 26.5844 20.3434 26.8573 20.3929C27.1199 20.4405 27.4082 20.4473 27.6723 20.4473V19.3629ZM26.5027 18.1803H27.5871C27.5871 17.9196 27.5868 17.5924 27.5299 17.3047C27.4627 16.965 27.2927 16.5511 26.8651 16.2628C26.5116 16.0246 26.1101 15.9674 25.8322 15.9424C25.531 15.9153 25.1593 15.9134 24.7484 15.9134V16.9978V18.0822C25.182 18.0822 25.4519 18.0857 25.6381 18.1024C25.7266 18.1104 25.7643 18.1189 25.7713 18.1207C25.7767 18.1221 25.725 18.1098 25.6529 18.0612C25.5719 18.0066 25.5019 17.9311 25.4534 17.847C25.4105 17.7725 25.4013 17.7202 25.4024 17.7256C25.4038 17.7328 25.4095 17.7679 25.4134 17.8525C25.4172 17.9357 25.4183 18.0393 25.4183 18.1803H26.5027ZM24.7484 16.9978V15.9134C24.3147 15.9134 24.0448 15.9099 23.8587 15.8931C23.7701 15.8852 23.7324 15.8767 23.7255 15.8748C23.72 15.8734 23.7717 15.8858 23.8438 15.9344C23.9248 15.989 23.9949 16.0645 24.0433 16.1486C24.0862 16.2231 24.0954 16.2754 24.0943 16.27C24.0929 16.2628 24.0872 16.2277 24.0833 16.1431C24.0795 16.0599 24.0784 15.9563 24.0784 15.8152H22.994H21.9097C21.9097 16.0759 21.9099 16.4032 21.9669 16.6909C22.0341 17.0306 22.204 17.4445 22.6317 17.7328C22.9851 17.971 23.3866 18.0282 23.6646 18.0532C23.9657 18.0802 24.3374 18.0822 24.7484 18.0822V16.9978ZM22.994 15.8152H24.0784V14.6327H22.994H21.9097V15.8152H22.994ZM22.994 14.6327V13.5483H20.6549V14.6327V15.717H22.994V14.6327ZM20.6549 14.6327V13.5483H18.3158V14.6327V15.717H20.6549V14.6327ZM18.3158 14.6327H17.2314V15.8152H18.3158H19.4002V14.6327H18.3158ZM12.468 16.9978V14.8291H10.2993V16.9978H12.468ZM12.468 24.0931H10.2993V26.2618H12.468V24.0931ZM14.8071 24.0931H16.9759V21.9244H14.8071V24.0931ZM14.8071 28.8233H12.6384V30.992H14.8071V28.8233ZM17.1462 28.8233H19.315V26.6546H17.1462V28.8233ZM17.1462 33.5535H14.9775V35.7222H17.1462V33.5535ZM38.1983 33.5535V35.7222H40.367V33.5535H38.1983ZM38.1983 28.8233V26.6546H36.0295V28.8233H38.1983ZM40.5374 28.8233V30.992H42.7061V28.8233H40.5374ZM40.5374 24.0931V21.9244H38.3687V24.0931H40.5374ZM42.8765 24.0931V26.2618H45.0452V24.0931H42.8765ZM42.8765 16.9978H45.0452V14.8291H42.8765V16.9978ZM37.0287 12.2676H39.1974V10.0988H37.0287V12.2676ZM32.3505 12.2676V10.0988H30.1818V12.2676H32.3505ZM22.994 12.2676H25.1628V10.0988H22.994V12.2676ZM18.3158 12.2676V10.0988H16.1471V12.2676H18.3158ZM18.3158 13.4501H16.1471C16.1471 13.5899 16.1459 13.6718 16.1433 13.728C16.1406 13.7871 16.1383 13.7622 16.1517 13.6944C16.1659 13.6231 16.2075 13.4494 16.3269 13.2422C16.4573 13.0158 16.6411 12.8176 16.86 12.6701C17.061 12.5346 17.2344 12.4804 17.3099 12.4607C17.3822 12.4418 17.4093 12.4431 17.3541 12.448C17.2255 12.4596 17.0065 12.464 16.5615 12.464V14.6327V16.8014C16.961 16.8014 17.3836 16.8003 17.7423 16.7681C18.0546 16.74 18.691 16.6667 19.2842 16.2668C20.0258 15.767 20.3048 15.0514 20.4067 14.5363C20.4881 14.1251 20.4845 13.6868 20.4845 13.4501H18.3158ZM16.5615 14.6327V12.464C16.1619 12.464 15.7393 12.4651 15.3806 12.4973C15.0684 12.5253 14.4319 12.5987 13.8387 12.9985C13.0971 13.4984 12.8181 14.214 12.7162 14.7291C12.6349 15.1403 12.6384 15.5785 12.6384 15.8152H14.8071H16.9759C16.9759 15.6755 16.9771 15.5935 16.9797 15.5373C16.9824 15.4783 16.9846 15.5032 16.9712 15.571C16.9571 15.6423 16.9154 15.816 16.796 16.0232C16.6656 16.2495 16.4818 16.4478 16.263 16.5953C16.0619 16.7308 15.8885 16.7849 15.8131 16.8047C15.7407 16.8236 15.7136 16.8223 15.7688 16.8173C15.8974 16.8058 16.1164 16.8014 16.5615 16.8014V14.6327ZM14.8071 15.8152H12.6384C12.6384 16.07 12.6274 16.1085 12.6352 16.0646C12.6461 16.0034 12.7189 15.631 13.0703 15.2757C13.4244 14.9176 13.8011 14.8398 13.8718 14.8269C13.9218 14.8179 13.8892 14.8291 13.6376 14.8291V16.9978V19.1665C13.9058 19.1665 14.2794 19.1613 14.6461 19.0948C15.0336 19.0245 15.6377 18.8481 16.1542 18.3258C16.668 17.8063 16.8383 17.204 16.906 16.8224C16.9706 16.4583 16.9759 16.0861 16.9759 15.8152H14.8071ZM13.6376 16.9978V14.8291H12.468V16.9978V19.1665H13.6376V16.9978ZM12.468 16.9978H10.2993V20.5454H12.468H14.6367V16.9978H12.468ZM12.468 20.5454H10.2993V24.0931H12.468H14.6367V20.5454H12.468ZM12.468 24.0931V26.2618H13.6376V24.0931V21.9244H12.468V24.0931ZM13.6376 24.0931V26.2618H14.8071V24.0931V21.9244H13.6376V24.0931ZM14.8071 24.0931H12.6384V26.4582H14.8071H16.9759V24.0931H14.8071ZM14.8071 26.4582H12.6384V28.8233H14.8071H16.9759V26.4582H14.8071ZM14.8071 28.8233V30.992H15.9767V28.8233V26.6546H14.8071V28.8233ZM15.9767 28.8233V30.992H17.1462V28.8233V26.6546H15.9767V28.8233ZM17.1462 28.8233H14.9775V31.1884H17.1462H19.315V28.8233H17.1462ZM17.1462 31.1884H14.9775V33.5535H17.1462H19.315V31.1884H17.1462ZM17.1462 33.5535V35.7222H18.3158V33.5535V31.3848H17.1462V33.5535ZM18.3158 33.5535V35.7222C18.5674 35.7222 18.6 35.7334 18.5501 35.7244C18.4793 35.7115 18.1027 35.6337 17.7485 35.2756C17.3972 34.9203 17.3243 34.5479 17.3135 34.4867C17.3057 34.4428 17.3166 34.4813 17.3166 34.7361H19.4854H21.6541C21.6541 34.4652 21.6488 34.093 21.5842 33.7289C21.5165 33.3474 21.3462 32.745 20.8325 32.2255C20.3159 31.7032 19.7118 31.5269 19.3243 31.4566C18.9576 31.39 18.5841 31.3848 18.3158 31.3848V33.5535ZM19.4854 34.7361H17.3166C17.3166 34.9728 17.3131 35.411 17.3944 35.8222C17.4964 36.3373 17.7753 37.0529 18.517 37.5528C19.1102 37.9526 19.7466 38.026 20.0588 38.054C20.4175 38.0863 20.8401 38.0874 21.2397 38.0874V35.9186V33.7499C20.7946 33.7499 20.5756 33.7455 20.447 33.734C20.3918 33.729 20.4189 33.7277 20.4913 33.7466C20.5667 33.7664 20.7401 33.8205 20.9412 33.956C21.16 34.1035 21.3439 34.3018 21.4743 34.5282C21.5936 34.7353 21.6353 34.909 21.6494 34.9803C21.6628 35.0481 21.6606 35.073 21.6579 35.014C21.6553 34.9578 21.6541 34.8758 21.6541 34.7361H19.4854ZM21.2397 35.9186V38.0874C21.6848 38.0874 21.9038 38.0917 22.0323 38.1033C22.0876 38.1082 22.0604 38.1095 21.9881 38.0906C21.9127 38.0709 21.7393 38.0167 21.5382 37.8812C21.3194 37.7337 21.1355 37.5355 21.0051 37.3091C20.8858 37.1019 20.8441 36.9282 20.83 36.8569C20.8166 36.7891 20.8188 36.7642 20.8215 36.8233C20.8241 36.8795 20.8253 36.9614 20.8253 37.1012H22.994H25.1628C25.1628 36.8645 25.1663 36.4262 25.085 36.015C24.983 35.4999 24.7041 34.7843 23.9624 34.2845C23.3692 33.8846 22.7328 33.8113 22.4206 33.7832C22.0619 33.751 21.6393 33.7499 21.2397 33.7499V35.9186ZM22.994 37.1012H20.8253C20.8253 37.3379 20.8218 37.7762 20.9031 38.1873C21.005 38.7024 21.284 39.418 22.0256 39.9179C22.6188 40.3177 23.2553 40.3911 23.5675 40.4191C23.9262 40.4514 24.3488 40.4525 24.7484 40.4525V38.2837V36.115C24.3033 36.115 24.0843 36.1106 23.9557 36.0991C23.9005 36.0941 23.9276 36.0928 24 36.1117C24.0754 36.1315 24.2488 36.1856 24.4499 36.3211C24.6687 36.4686 24.8525 36.6669 24.9829 36.8933C25.1023 37.1004 25.144 37.2741 25.1581 37.3454C25.1715 37.4132 25.1693 37.4381 25.1666 37.3791C25.164 37.3229 25.1628 37.2409 25.1628 37.1012H22.994ZM24.7484 38.2837V40.4525C25.1934 40.4525 25.4124 40.4568 25.541 40.4684C25.5962 40.4733 25.5691 40.4746 25.4968 40.4557C25.4213 40.436 25.2479 40.3818 25.0469 40.2463C24.828 40.0988 24.6442 39.9006 24.5138 39.6742C24.3944 39.467 24.3528 39.2934 24.3386 39.222C24.3252 39.1542 24.3275 39.1293 24.3302 39.1884C24.3328 39.2446 24.334 39.3265 24.334 39.4663H26.5027H28.6714C28.6714 39.2296 28.675 38.7913 28.5936 38.3801C28.4917 37.865 28.2127 37.1494 27.4711 36.6496C26.8779 36.2497 26.2415 36.1764 25.9292 36.1483C25.5705 36.1161 25.1479 36.115 24.7484 36.115V38.2837ZM26.5027 39.4663H24.334C24.334 39.7372 24.3392 40.1093 24.4039 40.4735C24.4716 40.855 24.6418 41.4573 25.1556 41.9768C25.6722 42.4991 26.2762 42.6755 26.6638 42.7458C27.0305 42.8123 27.404 42.8176 27.6723 42.8176V40.6488V38.4801C27.4207 38.4801 27.3881 38.4689 27.438 38.478C27.5087 38.4908 27.8854 38.5687 28.2396 38.9268C28.5909 39.282 28.6637 39.6544 28.6746 39.7157C28.6824 39.7595 28.6714 39.721 28.6714 39.4663H26.5027ZM27.6723 40.6488V42.8176C27.9405 42.8176 28.3141 42.8123 28.6808 42.7458C29.0683 42.6755 29.6723 42.4991 30.1889 41.9768C30.7027 41.4573 30.873 40.855 30.9407 40.4735C31.0053 40.1093 31.0105 39.7372 31.0105 39.4663H28.8418H26.6731C26.6731 39.721 26.6621 39.7595 26.6699 39.7157C26.6808 39.6544 26.7536 39.282 27.105 38.9268C27.4591 38.5687 27.8358 38.4908 27.9065 38.478C27.9565 38.4689 27.9239 38.4801 27.6723 38.4801V40.6488ZM28.8418 39.4663H31.0105C31.0105 39.3265 31.0118 39.2446 31.0143 39.1884C31.0171 39.1293 31.0193 39.1542 31.0059 39.222C30.9918 39.2933 30.9501 39.467 30.8307 39.6742C30.7003 39.9006 30.5165 40.0988 30.2976 40.2463C30.0966 40.3818 29.9232 40.436 29.8477 40.4557C29.7754 40.4746 29.7483 40.4733 29.8035 40.4684C29.9321 40.4568 30.1511 40.4525 30.5962 40.4525V38.2837V36.115C30.1966 36.115 29.774 36.1161 29.4153 36.1483C29.103 36.1764 28.4666 36.2497 27.8734 36.6496C27.1318 37.1494 26.8528 37.865 26.7509 38.3801C26.6695 38.7913 26.6731 39.2296 26.6731 39.4663H28.8418ZM30.5962 38.2837V40.4525C30.9957 40.4525 31.4183 40.4514 31.777 40.4191C32.0893 40.3911 32.7257 40.3177 33.3189 39.9179C34.0605 39.418 34.3395 38.7024 34.4414 38.1873C34.5228 37.7762 34.5192 37.3379 34.5192 37.1012H32.3505H30.1818C30.1818 37.2409 30.1806 37.3229 30.178 37.3791C30.1752 37.4381 30.173 37.4132 30.1864 37.3454C30.2005 37.2741 30.2422 37.1004 30.3616 36.8933C30.492 36.6669 30.6758 36.4686 30.8947 36.3211C31.0957 36.1856 31.2691 36.1315 31.3446 36.1117C31.4169 36.0928 31.444 36.0941 31.3888 36.0991C31.2602 36.1106 31.0412 36.115 30.5962 36.115V38.2837ZM32.3505 37.1012H34.5192C34.5192 36.9614 34.5204 36.8795 34.523 36.8233C34.5257 36.7642 34.528 36.7891 34.5145 36.8569C34.5004 36.9282 34.4587 37.1019 34.3394 37.3091C34.209 37.5355 34.0251 37.7337 33.8063 37.8812C33.6052 38.0167 33.4319 38.0709 33.3564 38.0906C33.2841 38.1095 33.2569 38.1082 33.3122 38.1033C33.4408 38.0917 33.6598 38.0874 34.1048 38.0874V35.9186V33.7499C33.7053 33.7499 33.2827 33.751 32.924 33.7832C32.6117 33.8113 31.9753 33.8846 31.3821 34.2845C30.6405 34.7843 30.3615 35.4999 30.2596 36.015C30.1782 36.4262 30.1818 36.8645 30.1818 37.1012H32.3505ZM34.1048 35.9186V38.0874C34.5044 38.0874 34.927 38.0863 35.2857 38.054C35.5979 38.026 36.2343 37.9526 36.8276 37.5528C37.5692 37.0529 37.8482 36.3373 37.9501 35.8222C38.0314 35.411 38.0279 34.9728 38.0279 34.7361H35.8592H33.6904C33.6904 34.8758 33.6892 34.9578 33.6866 35.014C33.6839 35.073 33.6817 35.0481 33.6951 34.9803C33.7092 34.909 33.7509 34.7353 33.8702 34.5282C34.0007 34.3018 34.1845 34.1035 34.4033 33.956C34.6044 33.8205 34.7778 33.7664 34.8532 33.7466C34.9256 33.7277 34.9527 33.729 34.8975 33.734C34.7689 33.7455 34.5499 33.7499 34.1048 33.7499V35.9186ZM35.8592 34.7361H38.0279C38.0279 34.4813 38.0388 34.4428 38.0311 34.4867C38.0202 34.5479 37.9474 34.9203 37.596 35.2756C37.2419 35.6337 36.8652 35.7115 36.7944 35.7244C36.7445 35.7334 36.7771 35.7222 37.0287 35.7222V33.5535V31.3848C36.7604 31.3848 36.3869 31.39 36.0202 31.4566C35.6327 31.5269 35.0286 31.7032 34.5121 32.2255C33.9983 32.745 33.828 33.3474 33.7603 33.7289C33.6957 34.093 33.6904 34.4652 33.6904 34.7361H35.8592ZM37.0287 33.5535V35.7222H38.1983V33.5535V31.3848H37.0287V33.5535ZM38.1983 33.5535H40.367V31.1884H38.1983H36.0295V33.5535H38.1983ZM38.1983 31.1884H40.367V28.8233H38.1983H36.0295V31.1884H38.1983ZM38.1983 28.8233V30.992H39.3678V28.8233V26.6546H38.1983V28.8233ZM39.3678 28.8233V30.992H40.5374V28.8233V26.6546H39.3678V28.8233ZM40.5374 28.8233H42.7061V26.4582H40.5374H38.3687V28.8233H40.5374ZM40.5374 26.4582H42.7061V24.0931H40.5374H38.3687V26.4582H40.5374ZM40.5374 24.0931V26.2618H41.7069V24.0931V21.9244H40.5374V24.0931ZM41.7069 24.0931V26.2618H42.8765V24.0931V21.9244H41.7069V24.0931ZM42.8765 24.0931H45.0452V20.5454H42.8765H40.7078V24.0931H42.8765ZM42.8765 20.5454H45.0452V16.9978H42.8765H40.7078V20.5454H42.8765ZM42.8765 16.9978V14.8291H41.7069V16.9978V19.1665H42.8765V16.9978ZM41.7069 16.9978V14.8291C41.4553 14.8291 41.4227 14.8179 41.4727 14.8269C41.5434 14.8398 41.9201 14.9176 42.2742 15.2757C42.6256 15.631 42.6984 16.0034 42.7093 16.0646C42.7171 16.1085 42.7061 16.07 42.7061 15.8152H40.5374H38.3687C38.3687 16.0861 38.3739 16.4583 38.4385 16.8224C38.5062 17.204 38.6765 17.8063 39.1903 18.3258C39.7069 18.8481 40.3109 19.0245 40.6985 19.0948C41.0651 19.1613 41.4387 19.1665 41.7069 19.1665V16.9978ZM40.5374 15.8152H42.7061C42.7061 15.5785 42.7097 15.1403 42.6283 14.7291C42.5264 14.214 42.2474 13.4984 41.5058 12.9985C40.9126 12.5987 40.2762 12.5253 39.9639 12.4973C39.6052 12.4651 39.1826 12.464 38.7831 12.464V14.6327V16.8014C39.2281 16.8014 39.4471 16.8058 39.5757 16.8173C39.6309 16.8223 39.6038 16.8236 39.5315 16.8047C39.456 16.7849 39.2826 16.7308 39.0816 16.5953C38.8627 16.4478 38.6789 16.2495 38.5485 16.0232C38.4291 15.816 38.3874 15.6423 38.3733 15.571C38.3599 15.5032 38.3621 15.4783 38.3649 15.5373C38.3675 15.5935 38.3687 15.6755 38.3687 15.8152H40.5374ZM38.7831 14.6327V12.464C38.338 12.464 38.119 12.4596 37.9904 12.448C37.9352 12.4431 37.9623 12.4418 38.0346 12.4607C38.1101 12.4804 38.2835 12.5346 38.4845 12.6701C38.7034 12.8176 38.8872 13.0158 39.0176 13.2422C39.137 13.4494 39.1787 13.6231 39.1928 13.6944C39.2062 13.7622 39.204 13.7871 39.2012 13.728C39.1987 13.6718 39.1974 13.5899 39.1974 13.4501H37.0287H34.86C34.86 13.6868 34.8564 14.1251 34.9378 14.5363C35.0397 15.0514 35.3187 15.767 36.0603 16.2668C36.6535 16.6667 37.2899 16.74 37.6022 16.7681C37.9609 16.8003 38.3835 16.8014 38.7831 16.8014V14.6327ZM37.0287 13.4501H39.1974V12.2676H37.0287H34.86V13.4501H37.0287ZM37.0287 12.2676V10.0988H34.6896V12.2676V14.4363H37.0287V12.2676ZM34.6896 12.2676V10.0988H32.3505V12.2676V14.4363H34.6896V12.2676ZM32.3505 12.2676H30.1818V13.4501H32.3505H34.5192V12.2676H32.3505ZM32.3505 13.4501H30.1818C30.1818 13.5899 30.1806 13.6718 30.178 13.728C30.1752 13.7871 30.173 13.7622 30.1864 13.6944C30.2005 13.6231 30.2422 13.4494 30.3616 13.2422C30.492 13.0158 30.6758 12.8176 30.8947 12.6701C31.0957 12.5346 31.2691 12.4804 31.3446 12.4607C31.4169 12.4418 31.444 12.4431 31.3888 12.448C31.2602 12.4596 31.0412 12.464 30.5962 12.464V14.6327V16.8014C30.9957 16.8014 31.4183 16.8003 31.777 16.7681C32.0893 16.74 32.7257 16.6667 33.3189 16.2668C34.0605 15.767 34.3395 15.0514 34.4414 14.5363C34.5228 14.1251 34.5192 13.6868 34.5192 13.4501H32.3505ZM30.5962 14.6327V12.464C30.1966 12.464 29.774 12.4651 29.4153 12.4973C29.103 12.5253 28.4666 12.5987 27.8734 12.9985C27.1318 13.4984 26.8528 14.214 26.7509 14.7291C26.6695 15.1403 26.6731 15.5785 26.6731 15.8152H28.8418H31.0105C31.0105 15.6755 31.0118 15.5935 31.0143 15.5373C31.0171 15.4783 31.0193 15.5032 31.0059 15.571C30.9918 15.6423 30.9501 15.816 30.8307 16.0231C30.7003 16.2495 30.5165 16.4478 30.2976 16.5953C30.0966 16.7308 29.9232 16.7849 29.8477 16.8047C29.7754 16.8236 29.7483 16.8223 29.8035 16.8173C29.9321 16.8058 30.1511 16.8014 30.5962 16.8014V14.6327ZM28.8418 15.8152H26.6731C26.6731 16.07 26.6621 16.1085 26.6699 16.0646C26.6808 16.0034 26.7536 15.631 27.105 15.2757C27.4591 14.9176 27.8358 14.8398 27.9065 14.8269C27.9565 14.8179 27.9239 14.8291 27.6723 14.8291V16.9978V19.1665C27.9405 19.1665 28.3141 19.1613 28.6808 19.0948C29.0683 19.0245 29.6723 18.8481 30.1889 18.3258C30.7027 17.8063 30.873 17.204 30.9407 16.8224C31.0053 16.4583 31.0105 16.0861 31.0105 15.8152H28.8418ZM27.6723 16.9978V14.8291C27.4207 14.8291 27.3881 14.8179 27.438 14.8269C27.5087 14.8398 27.8854 14.9176 28.2396 15.2757C28.5909 15.631 28.6637 16.0034 28.6746 16.0646C28.6824 16.1085 28.6714 16.07 28.6714 15.8152H26.5027H24.334C24.334 16.0861 24.3392 16.4583 24.4039 16.8224C24.4716 17.204 24.6418 17.8063 25.1556 18.3258C25.6722 18.8481 26.2762 19.0245 26.6638 19.0948C27.0305 19.1613 27.404 19.1665 27.6723 19.1665V16.9978ZM26.5027 15.8152H28.6714C28.6714 15.5785 28.675 15.1403 28.5936 14.7291C28.4917 14.214 28.2127 13.4984 27.4711 12.9985C26.8779 12.5987 26.2415 12.5253 25.9292 12.4973C25.5705 12.4651 25.1479 12.464 24.7484 12.464V14.6327V16.8014C25.1934 16.8014 25.4124 16.8058 25.541 16.8173C25.5962 16.8223 25.5691 16.8236 25.4968 16.8047C25.4213 16.7849 25.2479 16.7308 25.0469 16.5953C24.828 16.4478 24.6442 16.2495 24.5138 16.0232C24.3944 15.816 24.3528 15.6423 24.3386 15.571C24.3252 15.5032 24.3275 15.4783 24.3302 15.5373C24.3328 15.5935 24.334 15.6755 24.334 15.8152H26.5027ZM24.7484 14.6327V12.464C24.3033 12.464 24.0843 12.4596 23.9557 12.448C23.9005 12.4431 23.9276 12.4418 24 12.4607C24.0754 12.4804 24.2488 12.5346 24.4499 12.6701C24.6687 12.8176 24.8525 13.0158 24.9829 13.2422C25.1023 13.4494 25.144 13.6231 25.1581 13.6944C25.1715 13.7622 25.1693 13.7871 25.1666 13.728C25.164 13.6718 25.1628 13.5899 25.1628 13.4501H22.994H20.8253C20.8253 13.6868 20.8218 14.1251 20.9031 14.5363C21.005 15.0514 21.284 15.767 22.0256 16.2668C22.6188 16.6667 23.2553 16.74 23.5675 16.7681C23.9262 16.8003 24.3488 16.8014 24.7484 16.8014V14.6327ZM22.994 13.4501H25.1628V12.2676H22.994H20.8253V13.4501H22.994ZM22.994 12.2676V10.0988H20.6549V12.2676V14.4363H22.994V12.2676ZM20.6549 12.2676V10.0988H18.3158V12.2676V14.4363H20.6549V12.2676ZM18.3158 12.2676H16.1471V13.4501H18.3158H20.4845V12.2676H18.3158Z" fill="#141212" mask="url(#path-1-inside-1_1318_32706)"/>
</g>
<defs>
<filter id="filter0_iiiiiiii_1318_32706" x="-2.16871" y="-2.16871" width="61.3374" height="61.3374" filterUnits="userSpaceOnUse" color-interpolation-filters="sRGB">
<feFlood flood-opacity="0" result="BackgroundImageFix"/>
<feBlend mode="normal" in="SourceGraphic" in2="BackgroundImageFix" result="shape"/>
<feColorMatrix in="SourceAlpha" type="matrix" values="0 0 0 0 0 0 0 0 0 0 0 0 0 0 0 0 0 0 127 0" result="hardAlpha"/>
<feOffset dy="13.0123"/>
<feGaussianBlur stdDeviation="1.08436"/>
<feComposite in2="hardAlpha" operator="arithmetic" k2="-1" k3="1"/>
<feColorMatrix type="matrix" values="0 0 0 0 0.968627 0 0 0 0 0.968627 0 0 0 0 0.968627 0 0 0 1 0"/>
<feBlend mode="normal" in2="shape" result="effect1_innerShadow_1318_32706"/>
<feColorMatrix in="SourceAlpha" type="matrix" values="0 0 0 0 0 0 0 0 0 0 0 0 0 0 0 0 0 0 127 0" result="hardAlpha"/>
<feOffset dx="13.0123"/>
<feGaussianBlur stdDeviation="1.08436"/>
<feComposite in2="hardAlpha" operator="arithmetic" k2="-1" k3="1"/>
<feColorMatrix type="matrix" values="0 0 0 0 0.969126 0 0 0 0 0.969126 0 0 0 0 0.969126 0 0 0 1 0"/>
<feBlend mode="normal" in2="effect1_innerShadow_1318_32706" result="effect2_innerShadow_1318_32706"/>
<feColorMatrix in="SourceAlpha" type="matrix" values="0 0 0 0 0 0 0 0 0 0 0 0 0 0 0 0 0 0 127 0" result="hardAlpha"/>
<feOffset dy="-10.8436"/>
<feGaussianBlur stdDeviation="1.08436"/>
<feComposite in2="hardAlpha" operator="arithmetic" k2="-1" k3="1"/>
<feColorMatrix type="matrix" values="0 0 0 0 0.788235 0 0 0 0 0.788235 0 0 0 0 0.788235 0 0 0 1 0"/>
<feBlend mode="normal" in2="effect2_innerShadow_1318_32706" result="effect3_innerShadow_1318_32706"/>
<feColorMatrix in="SourceAlpha" type="matrix" values="0 0 0 0 0 0 0 0 0 0 0 0 0 0 0 0 0 0 127 0" result="hardAlpha"/>
<feOffset dx="-8.67485"/>
<feGaussianBlur stdDeviation="1.08436"/>
<feComposite in2="hardAlpha" operator="arithmetic" k2="-1" k3="1"/>
<feColorMatrix type="matrix" values="0 0 0 0 0.784314 0 0 0 0 0.784314 0 0 0 0 0.784314 0 0 0 1 0"/>
<feBlend mode="normal" in2="effect3_innerShadow_1318_32706" result="effect4_innerShadow_1318_32706"/>
<feColorMatrix in="SourceAlpha" type="matrix" values="0 0 0 0 0 0 0 0 0 0 0 0 0 0 0 0 0 0 127 0" result="hardAlpha"/>
<feOffset dy="4.33742"/>
<feGaussianBlur stdDeviation="1.08436"/>
<feComposite in2="hardAlpha" operator="arithmetic" k2="-1" k3="1"/>
<feColorMatrix type="matrix" values="0 0 0 0 0.913725 0 0 0 0 0.913725 0 0 0 0 0.913725 0 0 0 1 0"/>
<feBlend mode="normal" in2="effect4_innerShadow_1318_32706" result="effect5_innerShadow_1318_32706"/>
<feColorMatrix in="SourceAlpha" type="matrix" values="0 0 0 0 0 0 0 0 0 0 0 0 0 0 0 0 0 0 127 0" result="hardAlpha"/>
<feOffset dy="-4.33742"/>
<feGaussianBlur stdDeviation="1.08436"/>
<feComposite in2="hardAlpha" operator="arithmetic" k2="-1" k3="1"/>
<feColorMatrix type="matrix" values="0 0 0 0 0.162297 0 0 0 0 0.162297 0 0 0 0 0.162297 0 0 0 1 0"/>
<feBlend mode="normal" in2="effect5_innerShadow_1318_32706" result="effect6_innerShadow_1318_32706"/>
<feColorMatrix in="SourceAlpha" type="matrix" values="0 0 0 0 0 0 0 0 0 0 0 0 0 0 0 0 0 0 127 0" result="hardAlpha"/>
<feOffset dx="4.33742"/>
<feGaussianBlur stdDeviation="1.08436"/>
<feComposite in2="hardAlpha" operator="arithmetic" k2="-1" k3="1"/>
<feColorMatrix type="matrix" values="0 0 0 0 0.913725 0 0 0 0 0.913725 0 0 0 0 0.913725 0 0 0 1 0"/>
<feBlend mode="normal" in2="effect6_innerShadow_1318_32706" result="effect7_innerShadow_1318_32706"/>
<feColorMatrix in="SourceAlpha" type="matrix" values="0 0 0 0 0 0 0 0 0 0 0 0 0 0 0 0 0 0 127 0" result="hardAlpha"/>
<feOffset dx="-4.33742"/>
<feGaussianBlur stdDeviation="1.08436"/>
<feComposite in2="hardAlpha" operator="arithmetic" k2="-1" k3="1"/>
<feColorMatrix type="matrix" values="0 0 0 0 0.196078 0 0 0 0 0.196078 0 0 0 0 0.196078 0 0 0 1 0"/>
<feBlend mode="normal" in2="effect7_innerShadow_1318_32706" result="effect8_innerShadow_1318_32706"/>
</filter>
</defs>
</svg>
