<svg width="541" height="199" viewBox="0 0 541 199" fill="none" xmlns="http://www.w3.org/2000/svg">
<mask id="path-1-outside-1_954_7253" maskUnits="userSpaceOnUse" x="0" y="-0.121094" width="541" height="199" fill="black">
<rect fill="white" y="-0.121094" width="541" height="199"/>
<path d="M524 101.625L468.988 101.71V101.88C468.988 113.276 472.068 121.95 478.142 127.818C484.217 133.686 491.489 136.663 499.959 136.663C509.969 136.663 517.241 132.581 521.69 124.332L524 125.522C523.316 127.988 522.374 130.37 521.177 132.751C519.979 135.132 518.182 137.938 515.787 141.17C513.391 144.402 510.055 146.953 505.691 148.909C501.328 150.865 496.366 151.8 490.805 151.8C478.998 151.8 469.159 147.803 461.288 139.809C453.417 131.815 449.481 121.27 449.481 108.259C449.481 95.2471 453.417 84.6168 461.202 76.4527C468.988 68.2886 478.741 64.2065 490.462 64.2065C495.681 64.2065 500.387 65.142 504.579 67.0129C508.771 68.8839 512.022 71.095 514.332 73.7313C516.642 76.3676 518.61 79.2591 520.15 82.4907C521.69 85.7223 522.717 88.4437 523.23 90.7398C523.743 93.036 524 94.9069 524 96.3526V101.625ZM487.382 71.3501V71.5202C482.677 71.5202 478.741 73.5612 475.576 77.5582C472.41 81.5552 470.357 87.083 469.416 94.1415L504.237 93.7163C503.894 90.4847 503.296 87.4232 502.354 84.4467C501.413 81.4702 499.617 78.5787 497.05 75.6873C494.483 72.7958 491.232 71.3501 487.382 71.3501Z"/>
<path d="M423.128 151.541C416.882 151.541 411.663 149.5 407.385 145.503C403.108 141.506 400.969 135.638 400.969 127.984V73.6417H392.413V68.6242C406.102 59.6947 415.085 51.3605 419.363 43.6217H421.844V66.243H444.602L443.233 73.7267H422.186L421.673 122.116C421.588 133.427 425.865 139.039 434.506 139.039C438.528 139.039 442.206 137.509 445.543 134.532L447.169 136.403C440.838 146.523 432.795 151.541 423.128 151.541Z"/>
<path d="M342.874 149.999V147.703C347.922 145.577 351.173 143.451 352.542 141.325C353.911 139.198 354.595 134.861 354.595 128.313V94.5511C354.595 86.5571 353.911 81.3695 352.457 79.0734C351.002 76.7772 347.837 74.396 342.96 71.9298V69.7187C355.023 68.7832 365.974 66.8273 375.899 63.7657V128.398C375.899 134.946 376.583 139.284 377.952 141.41C379.321 143.536 382.486 145.662 387.363 147.703V149.999H342.874Z"/>
<path d="M290.864 184.879L290.949 182.498C297.965 180.372 302.414 178.246 304.381 176.12C306.349 173.993 307.29 169.656 307.29 163.193V136.66H307.119C304.296 140.742 300.617 144.229 295.997 147.205C291.377 150.182 286.244 151.627 280.511 151.627C271.015 151.627 263.058 147.63 256.556 139.636C250.054 131.642 246.803 121.352 246.803 108.851C246.803 96.0094 250.225 85.2941 256.984 76.7898C263.743 68.2855 272.384 64.0334 282.907 64.0334C287.955 64.0334 292.575 65.139 296.767 67.4351C300.959 69.7313 304.467 71.9424 307.29 74.1535C310.114 76.3646 312.424 77.4701 314.22 77.4701C317.728 77.4701 321.664 73.5582 326.027 65.6492H328.508V163.193C328.508 169.741 329.192 174.078 330.561 176.205C331.93 178.331 335.096 180.457 339.972 182.583V184.879H290.864ZM288.725 140.657H288.639C295.312 140.657 301.473 136.575 307.205 128.496V96.6047C304.98 89.9714 301.986 84.1885 298.221 79.256C294.457 74.3236 290.094 71.8573 285.046 71.8573C279.57 71.8573 275.464 74.9189 272.726 81.0419C269.988 87.165 268.619 94.7338 268.619 103.748C268.619 114.379 270.416 123.223 273.924 130.197C277.431 137.17 282.394 140.657 288.725 140.657Z"/>
<path d="M358.029 21.5752C359.412 16.6468 366.304 16.6468 367.687 21.5752C368.509 24.5087 371.676 26.0544 374.453 24.8774C379.117 22.9 383.414 28.3611 380.474 32.5294C378.724 35.0104 379.506 38.4835 382.145 39.9493C386.579 42.412 385.045 49.2219 379.996 49.4912C376.991 49.6515 374.799 52.4367 375.314 55.4415C376.178 60.4898 369.968 63.5205 366.613 59.688C364.615 57.4069 361.1 57.4069 359.103 59.688C355.747 63.5205 349.537 60.4898 350.402 55.4415C350.916 52.4367 348.725 49.6515 345.719 49.4912C340.671 49.2219 339.137 42.412 343.57 39.9493C346.209 38.4835 346.992 35.0104 345.242 32.5294C342.301 28.3611 346.599 22.9 351.263 24.8774C354.039 26.0544 357.206 24.5087 358.029 21.5752Z"/>
<path d="M197.267 150.018V147.892C202.315 145.766 205.566 143.64 206.935 141.513C208.304 139.387 208.988 135.05 208.988 128.502V50.5179C208.988 42.5239 208.304 37.3363 206.849 34.9552C205.395 32.574 202.229 30.1928 197.353 27.7265V25.5154C209.416 24.58 220.367 22.624 230.292 19.5625V128.417C230.292 134.965 230.976 139.302 232.345 141.428C233.714 143.555 236.879 145.681 241.756 147.722V150.018H197.267Z"/>
<path d="M191.868 101.625L136.856 101.71V101.88C136.856 113.276 139.936 121.95 146.01 127.818C152.085 133.686 159.357 136.663 167.827 136.663C177.837 136.663 185.109 132.581 189.558 124.332L191.868 125.522C191.184 127.988 190.242 130.37 189.045 132.751C187.847 135.132 186.05 137.938 183.655 141.17C181.259 144.402 177.923 146.953 173.559 148.909C169.196 150.865 164.234 151.8 158.673 151.8C146.866 151.8 137.027 147.803 129.156 139.809C121.285 131.815 117.349 121.27 117.349 108.259C117.349 95.2471 121.285 84.6168 129.07 76.4527C136.856 68.2886 146.609 64.2065 158.33 64.2065C163.549 64.2065 168.255 65.142 172.447 67.0129C176.639 68.8839 179.89 71.095 182.2 73.7313C184.51 76.3676 186.478 79.2591 188.018 82.4907C189.558 85.7223 190.585 88.4437 191.098 90.7398C191.611 93.036 191.868 94.9069 191.868 96.3526V101.625ZM155.25 71.3501V71.5202C150.545 71.5202 146.609 73.5612 143.444 77.5582C140.278 81.5552 138.225 87.083 137.284 94.1415L172.105 93.7163C171.763 90.4847 171.164 87.4232 170.223 84.4467C169.281 81.4702 167.485 78.5787 164.918 75.6873C162.351 72.7958 159.1 71.3501 155.25 71.3501Z"/>
<path d="M73.6321 64.1182C83.2144 64.1182 91.2566 68.1152 97.6732 76.1092C104.09 84.1032 107.341 94.4784 107.341 107.235C107.341 120.757 103.833 131.557 96.8177 139.636C89.8021 147.715 81.2466 151.712 71.2366 151.712C67.3866 151.712 63.7933 151.032 60.3711 149.671C56.9488 148.31 54.2111 146.865 52.1577 145.334C50.1044 143.803 48.0511 142.357 45.9122 140.997C43.7733 139.636 41.9766 138.956 40.5222 138.956C36.9289 138.956 32.7366 143.378 27.9455 152.222H25.4644V42.4323C25.4644 38.6054 24.6944 35.6289 23.1544 33.5879C21.6144 31.5469 18.5344 29.4208 14 27.2097V24.9986C25.2078 24.3182 36.1589 22.3623 46.7677 19.0456V79.0857H46.9388C54.3822 69.1357 63.2799 64.1182 73.6321 64.1182ZM69.0977 143.888L69.1833 143.973C74.5733 143.973 78.5944 141.082 81.2466 135.384C83.8988 129.686 85.2677 122.202 85.2677 113.018C85.2677 102.387 83.5566 93.3728 80.0488 86.0591C76.541 78.7455 71.6644 75.0887 65.3333 75.0887C59.5155 75.0887 53.3555 79.2557 46.7677 87.5049V118.46C48.7355 125.179 51.6444 131.132 55.4944 136.234C59.3444 141.337 63.8788 143.888 69.0977 143.888Z"/>
</mask>
<path d="M524 101.625L468.988 101.71V101.88C468.988 113.276 472.068 121.95 478.142 127.818C484.217 133.686 491.489 136.663 499.959 136.663C509.969 136.663 517.241 132.581 521.69 124.332L524 125.522C523.316 127.988 522.374 130.37 521.177 132.751C519.979 135.132 518.182 137.938 515.787 141.17C513.391 144.402 510.055 146.953 505.691 148.909C501.328 150.865 496.366 151.8 490.805 151.8C478.998 151.8 469.159 147.803 461.288 139.809C453.417 131.815 449.481 121.27 449.481 108.259C449.481 95.2471 453.417 84.6168 461.202 76.4527C468.988 68.2886 478.741 64.2065 490.462 64.2065C495.681 64.2065 500.387 65.142 504.579 67.0129C508.771 68.8839 512.022 71.095 514.332 73.7313C516.642 76.3676 518.61 79.2591 520.15 82.4907C521.69 85.7223 522.717 88.4437 523.23 90.7398C523.743 93.036 524 94.9069 524 96.3526V101.625ZM487.382 71.3501V71.5202C482.677 71.5202 478.741 73.5612 475.576 77.5582C472.41 81.5552 470.357 87.083 469.416 94.1415L504.237 93.7163C503.894 90.4847 503.296 87.4232 502.354 84.4467C501.413 81.4702 499.617 78.5787 497.05 75.6873C494.483 72.7958 491.232 71.3501 487.382 71.3501Z" fill="#F7F7F7"/>
<path d="M423.128 151.541C416.882 151.541 411.663 149.5 407.385 145.503C403.108 141.506 400.969 135.638 400.969 127.984V73.6417H392.413V68.6242C406.102 59.6947 415.085 51.3605 419.363 43.6217H421.844V66.243H444.602L443.233 73.7267H422.186L421.673 122.116C421.588 133.427 425.865 139.039 434.506 139.039C438.528 139.039 442.206 137.509 445.543 134.532L447.169 136.403C440.838 146.523 432.795 151.541 423.128 151.541Z" fill="#F7F7F7"/>
<path d="M342.874 149.999V147.703C347.922 145.577 351.173 143.451 352.542 141.325C353.911 139.198 354.595 134.861 354.595 128.313V94.5511C354.595 86.5571 353.911 81.3695 352.457 79.0734C351.002 76.7772 347.837 74.396 342.96 71.9298V69.7187C355.023 68.7832 365.974 66.8273 375.899 63.7657V128.398C375.899 134.946 376.583 139.284 377.952 141.41C379.321 143.536 382.486 145.662 387.363 147.703V149.999H342.874Z" fill="#F7F7F7"/>
<path d="M290.864 184.879L290.949 182.498C297.965 180.372 302.414 178.246 304.381 176.12C306.349 173.993 307.29 169.656 307.29 163.193V136.66H307.119C304.296 140.742 300.617 144.229 295.997 147.205C291.377 150.182 286.244 151.627 280.511 151.627C271.015 151.627 263.058 147.63 256.556 139.636C250.054 131.642 246.803 121.352 246.803 108.851C246.803 96.0094 250.225 85.2941 256.984 76.7898C263.743 68.2855 272.384 64.0334 282.907 64.0334C287.955 64.0334 292.575 65.139 296.767 67.4351C300.959 69.7313 304.467 71.9424 307.29 74.1535C310.114 76.3646 312.424 77.4701 314.22 77.4701C317.728 77.4701 321.664 73.5582 326.027 65.6492H328.508V163.193C328.508 169.741 329.192 174.078 330.561 176.205C331.93 178.331 335.096 180.457 339.972 182.583V184.879H290.864ZM288.725 140.657H288.639C295.312 140.657 301.473 136.575 307.205 128.496V96.6047C304.98 89.9714 301.986 84.1885 298.221 79.256C294.457 74.3236 290.094 71.8573 285.046 71.8573C279.57 71.8573 275.464 74.9189 272.726 81.0419C269.988 87.165 268.619 94.7338 268.619 103.748C268.619 114.379 270.416 123.223 273.924 130.197C277.431 137.17 282.394 140.657 288.725 140.657Z" fill="#F7F7F7"/>
<path d="M358.029 21.5752C359.412 16.6468 366.304 16.6468 367.687 21.5752C368.509 24.5087 371.676 26.0544 374.453 24.8774C379.117 22.9 383.414 28.3611 380.474 32.5294C378.724 35.0104 379.506 38.4835 382.145 39.9493C386.579 42.412 385.045 49.2219 379.996 49.4912C376.991 49.6515 374.799 52.4367 375.314 55.4415C376.178 60.4898 369.968 63.5205 366.613 59.688C364.615 57.4069 361.1 57.4069 359.103 59.688C355.747 63.5205 349.537 60.4898 350.402 55.4415C350.916 52.4367 348.725 49.6515 345.719 49.4912C340.671 49.2219 339.137 42.412 343.57 39.9493C346.209 38.4835 346.992 35.0104 345.242 32.5294C342.301 28.3611 346.599 22.9 351.263 24.8774C354.039 26.0544 357.206 24.5087 358.029 21.5752Z" fill="#F7F7F7"/>
<path d="M197.267 150.018V147.892C202.315 145.766 205.566 143.64 206.935 141.513C208.304 139.387 208.988 135.05 208.988 128.502V50.5179C208.988 42.5239 208.304 37.3363 206.849 34.9552C205.395 32.574 202.229 30.1928 197.353 27.7265V25.5154C209.416 24.58 220.367 22.624 230.292 19.5625V128.417C230.292 134.965 230.976 139.302 232.345 141.428C233.714 143.555 236.879 145.681 241.756 147.722V150.018H197.267Z" fill="#F7F7F7"/>
<path d="M191.868 101.625L136.856 101.71V101.88C136.856 113.276 139.936 121.95 146.01 127.818C152.085 133.686 159.357 136.663 167.827 136.663C177.837 136.663 185.109 132.581 189.558 124.332L191.868 125.522C191.184 127.988 190.242 130.37 189.045 132.751C187.847 135.132 186.05 137.938 183.655 141.17C181.259 144.402 177.923 146.953 173.559 148.909C169.196 150.865 164.234 151.8 158.673 151.8C146.866 151.8 137.027 147.803 129.156 139.809C121.285 131.815 117.349 121.27 117.349 108.259C117.349 95.2471 121.285 84.6168 129.07 76.4527C136.856 68.2886 146.609 64.2065 158.33 64.2065C163.549 64.2065 168.255 65.142 172.447 67.0129C176.639 68.8839 179.89 71.095 182.2 73.7313C184.51 76.3676 186.478 79.2591 188.018 82.4907C189.558 85.7223 190.585 88.4437 191.098 90.7398C191.611 93.036 191.868 94.9069 191.868 96.3526V101.625ZM155.25 71.3501V71.5202C150.545 71.5202 146.609 73.5612 143.444 77.5582C140.278 81.5552 138.225 87.083 137.284 94.1415L172.105 93.7163C171.763 90.4847 171.164 87.4232 170.223 84.4467C169.281 81.4702 167.485 78.5787 164.918 75.6873C162.351 72.7958 159.1 71.3501 155.25 71.3501Z" fill="#F7F7F7"/>
<path d="M73.6321 64.1182C83.2144 64.1182 91.2566 68.1152 97.6732 76.1092C104.09 84.1032 107.341 94.4784 107.341 107.235C107.341 120.757 103.833 131.557 96.8177 139.636C89.8021 147.715 81.2466 151.712 71.2366 151.712C67.3866 151.712 63.7933 151.032 60.3711 149.671C56.9488 148.31 54.2111 146.865 52.1577 145.334C50.1044 143.803 48.0511 142.357 45.9122 140.997C43.7733 139.636 41.9766 138.956 40.5222 138.956C36.9289 138.956 32.7366 143.378 27.9455 152.222H25.4644V42.4323C25.4644 38.6054 24.6944 35.6289 23.1544 33.5879C21.6144 31.5469 18.5344 29.4208 14 27.2097V24.9986C25.2078 24.3182 36.1589 22.3623 46.7677 19.0456V79.0857H46.9388C54.3822 69.1357 63.2799 64.1182 73.6321 64.1182ZM69.0977 143.888L69.1833 143.973C74.5733 143.973 78.5944 141.082 81.2466 135.384C83.8988 129.686 85.2677 122.202 85.2677 113.018C85.2677 102.387 83.5566 93.3728 80.0488 86.0591C76.541 78.7455 71.6644 75.0887 65.3333 75.0887C59.5155 75.0887 53.3555 79.2557 46.7677 87.5049V118.46C48.7355 125.179 51.6444 131.132 55.4944 136.234C59.3444 141.337 63.8788 143.888 69.0977 143.888Z" fill="#F7F7F7"/>
<path d="M524 101.625L468.988 101.71V101.88C468.988 113.276 472.068 121.95 478.142 127.818C484.217 133.686 491.489 136.663 499.959 136.663C509.969 136.663 517.241 132.581 521.69 124.332L524 125.522C523.316 127.988 522.374 130.37 521.177 132.751C519.979 135.132 518.182 137.938 515.787 141.17C513.391 144.402 510.055 146.953 505.691 148.909C501.328 150.865 496.366 151.8 490.805 151.8C478.998 151.8 469.159 147.803 461.288 139.809C453.417 131.815 449.481 121.27 449.481 108.259C449.481 95.2471 453.417 84.6168 461.202 76.4527C468.988 68.2886 478.741 64.2065 490.462 64.2065C495.681 64.2065 500.387 65.142 504.579 67.0129C508.771 68.8839 512.022 71.095 514.332 73.7313C516.642 76.3676 518.61 79.2591 520.15 82.4907C521.69 85.7223 522.717 88.4437 523.23 90.7398C523.743 93.036 524 94.9069 524 96.3526V101.625ZM487.382 71.3501V71.5202C482.677 71.5202 478.741 73.5612 475.576 77.5582C472.41 81.5552 470.357 87.083 469.416 94.1415L504.237 93.7163C503.894 90.4847 503.296 87.4232 502.354 84.4467C501.413 81.4702 499.617 78.5787 497.05 75.6873C494.483 72.7958 491.232 71.3501 487.382 71.3501Z" stroke="#141212" stroke-width="28" mask="url(#path-1-outside-1_954_7253)"/>
<path d="M423.128 151.541C416.882 151.541 411.663 149.5 407.385 145.503C403.108 141.506 400.969 135.638 400.969 127.984V73.6417H392.413V68.6242C406.102 59.6947 415.085 51.3605 419.363 43.6217H421.844V66.243H444.602L443.233 73.7267H422.186L421.673 122.116C421.588 133.427 425.865 139.039 434.506 139.039C438.528 139.039 442.206 137.509 445.543 134.532L447.169 136.403C440.838 146.523 432.795 151.541 423.128 151.541Z" stroke="#141212" stroke-width="28" mask="url(#path-1-outside-1_954_7253)"/>
<path d="M342.874 149.999V147.703C347.922 145.577 351.173 143.451 352.542 141.325C353.911 139.198 354.595 134.861 354.595 128.313V94.5511C354.595 86.5571 353.911 81.3695 352.457 79.0734C351.002 76.7772 347.837 74.396 342.96 71.9298V69.7187C355.023 68.7832 365.974 66.8273 375.899 63.7657V128.398C375.899 134.946 376.583 139.284 377.952 141.41C379.321 143.536 382.486 145.662 387.363 147.703V149.999H342.874Z" stroke="#141212" stroke-width="28" mask="url(#path-1-outside-1_954_7253)"/>
<path d="M290.864 184.879L290.949 182.498C297.965 180.372 302.414 178.246 304.381 176.12C306.349 173.993 307.29 169.656 307.29 163.193V136.66H307.119C304.296 140.742 300.617 144.229 295.997 147.205C291.377 150.182 286.244 151.627 280.511 151.627C271.015 151.627 263.058 147.63 256.556 139.636C250.054 131.642 246.803 121.352 246.803 108.851C246.803 96.0094 250.225 85.2941 256.984 76.7898C263.743 68.2855 272.384 64.0334 282.907 64.0334C287.955 64.0334 292.575 65.139 296.767 67.4351C300.959 69.7313 304.467 71.9424 307.29 74.1535C310.114 76.3646 312.424 77.4701 314.22 77.4701C317.728 77.4701 321.664 73.5582 326.027 65.6492H328.508V163.193C328.508 169.741 329.192 174.078 330.561 176.205C331.93 178.331 335.096 180.457 339.972 182.583V184.879H290.864ZM288.725 140.657H288.639C295.312 140.657 301.473 136.575 307.205 128.496V96.6047C304.98 89.9714 301.986 84.1885 298.221 79.256C294.457 74.3236 290.094 71.8573 285.046 71.8573C279.57 71.8573 275.464 74.9189 272.726 81.0419C269.988 87.165 268.619 94.7338 268.619 103.748C268.619 114.379 270.416 123.223 273.924 130.197C277.431 137.17 282.394 140.657 288.725 140.657Z" stroke="#141212" stroke-width="28" mask="url(#path-1-outside-1_954_7253)"/>
<path d="M358.029 21.5752C359.412 16.6468 366.304 16.6468 367.687 21.5752C368.509 24.5087 371.676 26.0544 374.453 24.8774C379.117 22.9 383.414 28.3611 380.474 32.5294C378.724 35.0104 379.506 38.4835 382.145 39.9493C386.579 42.412 385.045 49.2219 379.996 49.4912C376.991 49.6515 374.799 52.4367 375.314 55.4415C376.178 60.4898 369.968 63.5205 366.613 59.688C364.615 57.4069 361.1 57.4069 359.103 59.688C355.747 63.5205 349.537 60.4898 350.402 55.4415C350.916 52.4367 348.725 49.6515 345.719 49.4912C340.671 49.2219 339.137 42.412 343.57 39.9493C346.209 38.4835 346.992 35.0104 345.242 32.5294C342.301 28.3611 346.599 22.9 351.263 24.8774C354.039 26.0544 357.206 24.5087 358.029 21.5752Z" stroke="#141212" stroke-width="28" mask="url(#path-1-outside-1_954_7253)"/>
<path d="M197.267 150.018V147.892C202.315 145.766 205.566 143.64 206.935 141.513C208.304 139.387 208.988 135.05 208.988 128.502V50.5179C208.988 42.5239 208.304 37.3363 206.849 34.9552C205.395 32.574 202.229 30.1928 197.353 27.7265V25.5154C209.416 24.58 220.367 22.624 230.292 19.5625V128.417C230.292 134.965 230.976 139.302 232.345 141.428C233.714 143.555 236.879 145.681 241.756 147.722V150.018H197.267Z" stroke="#141212" stroke-width="28" mask="url(#path-1-outside-1_954_7253)"/>
<path d="M191.868 101.625L136.856 101.71V101.88C136.856 113.276 139.936 121.95 146.01 127.818C152.085 133.686 159.357 136.663 167.827 136.663C177.837 136.663 185.109 132.581 189.558 124.332L191.868 125.522C191.184 127.988 190.242 130.37 189.045 132.751C187.847 135.132 186.05 137.938 183.655 141.17C181.259 144.402 177.923 146.953 173.559 148.909C169.196 150.865 164.234 151.8 158.673 151.8C146.866 151.8 137.027 147.803 129.156 139.809C121.285 131.815 117.349 121.27 117.349 108.259C117.349 95.2471 121.285 84.6168 129.07 76.4527C136.856 68.2886 146.609 64.2065 158.33 64.2065C163.549 64.2065 168.255 65.142 172.447 67.0129C176.639 68.8839 179.89 71.095 182.2 73.7313C184.51 76.3676 186.478 79.2591 188.018 82.4907C189.558 85.7223 190.585 88.4437 191.098 90.7398C191.611 93.036 191.868 94.9069 191.868 96.3526V101.625ZM155.25 71.3501V71.5202C150.545 71.5202 146.609 73.5612 143.444 77.5582C140.278 81.5552 138.225 87.083 137.284 94.1415L172.105 93.7163C171.763 90.4847 171.164 87.4232 170.223 84.4467C169.281 81.4702 167.485 78.5787 164.918 75.6873C162.351 72.7958 159.1 71.3501 155.25 71.3501Z" stroke="#141212" stroke-width="28" mask="url(#path-1-outside-1_954_7253)"/>
<path d="M73.6321 64.1182C83.2144 64.1182 91.2566 68.1152 97.6732 76.1092C104.09 84.1032 107.341 94.4784 107.341 107.235C107.341 120.757 103.833 131.557 96.8177 139.636C89.8021 147.715 81.2466 151.712 71.2366 151.712C67.3866 151.712 63.7933 151.032 60.3711 149.671C56.9488 148.31 54.2111 146.865 52.1577 145.334C50.1044 143.803 48.0511 142.357 45.9122 140.997C43.7733 139.636 41.9766 138.956 40.5222 138.956C36.9289 138.956 32.7366 143.378 27.9455 152.222H25.4644V42.4323C25.4644 38.6054 24.6944 35.6289 23.1544 33.5879C21.6144 31.5469 18.5344 29.4208 14 27.2097V24.9986C25.2078 24.3182 36.1589 22.3623 46.7677 19.0456V79.0857H46.9388C54.3822 69.1357 63.2799 64.1182 73.6321 64.1182ZM69.0977 143.888L69.1833 143.973C74.5733 143.973 78.5944 141.082 81.2466 135.384C83.8988 129.686 85.2677 122.202 85.2677 113.018C85.2677 102.387 83.5566 93.3728 80.0488 86.0591C76.541 78.7455 71.6644 75.0887 65.3333 75.0887C59.5155 75.0887 53.3555 79.2557 46.7677 87.5049V118.46C48.7355 125.179 51.6444 131.132 55.4944 136.234C59.3444 141.337 63.8788 143.888 69.0977 143.888Z" stroke="#141212" stroke-width="28" mask="url(#path-1-outside-1_954_7253)"/>
</svg>
