<svg width="114" height="114" viewBox="0 0 114 114" fill="none" xmlns="http://www.w3.org/2000/svg">
<path d="M44.0996 10.3613C47.765 -2.7868 66.0523 -2.7868 69.7178 10.3613C71.7398 17.6142 79.5123 21.4198 86.3135 18.5186C98.7226 13.2247 110.061 27.8375 102.291 38.9219C97.9908 45.0564 99.9183 53.6411 106.393 57.2598C118.132 63.8215 114.097 81.9874 100.688 82.707C93.3258 83.1024 87.9361 89.9745 89.2012 97.4092C91.4868 110.841 75.0395 118.982 66.1182 108.73C61.2185 103.1 52.5999 103.1 47.7002 108.73C38.7789 118.983 22.3305 110.841 24.6162 97.4092C25.8814 89.9744 20.4917 83.1022 13.1289 82.707C-0.279367 81.9873 -4.31358 63.8213 7.42578 57.2598C13.9001 53.6411 15.8267 45.0564 11.5264 38.9219C3.7566 27.8376 15.0949 13.2249 27.5039 18.5186C34.3052 21.42 42.0775 17.6142 44.0996 10.3613Z" fill="#FF7723" stroke="black"/>
</svg>
